<svg xmlns="http://www.w3.org/2000/svg" width="18" height="18" viewBox="0 0 18 18">
  <path fill="#7458FB" fill-rule="evenodd" d="M291,22 C290.447,22 290,22.447 290,23 C290,32.388 297.612,40 307,40 C307.553,40 308,39.553 308,39 L308,35.5 C308,34.948 307.553,34.501 307,34.501 C305.752,34.501 304.552,34.3 303.428,33.932 C303.328,33.9 303.223,33.884 303.119,33.884 C302.864,33.884 302.608,33.982 302.413,34.177 L300.212,36.38 C297.38,34.94 295.065,32.625 293.623,29.794 L295.823,27.587 C296.098,27.313 296.179,26.918 296.068,26.572 C295.7,25.447 295.499,24.247 295.499,23 C295.499,22.447 295.052,22 294.5,22 L291,22 Z" transform="translate(-290 -22)"/>
</svg>
