<svg xmlns="http://www.w3.org/2000/svg" xmlns:xlink="http://www.w3.org/1999/xlink" width="44" height="44" viewBox="0 0 44 44">
  <defs>
    <linearGradient id="chima-carpenter-b" x1="-50.577%" x2="118.168%" y1="-106.069%" y2="162.663%">
      <stop offset="0%" stop-color="#3FACFE"/>
      <stop offset="100%" stop-color="#933DFA"/>
    </linearGradient>
    <circle id="chima-carpenter-a" cx="22" cy="22" r="22"/>
  </defs>
  <g fill="none" fill-rule="evenodd">
    <mask id="chima-carpenter-c" fill="#fff">
      <use xlink:href="#chima-carpenter-a"/>
    </mask>
    <use fill="url(#chima-carpenter-b)" xlink:href="#chima-carpenter-a"/>
    <g fill="#FFF" fill-rule="nonzero" mask="url(#chima-carpenter-c)">
      <g transform="translate(13 11)">
        <path d="M8.99765278,0 C4.03895199,0 1.02148312e-05,4.13666302 1.02148312e-05,9.22070865 C-0.000850740965,9.80157259 0.0527144127,10.3811794 0.159968305,10.9515502 C0.164672955,10.9852992 0.183491553,11.0865462 0.218776426,11.2601124 C0.356910647,11.8862181 0.559563797,12.4955124 0.823323914,13.0777371 C1.79248175,15.4160606 3.92368807,19.0079184 8.60010988,22.8553042 C8.83347114,23.0482319 9.16653908,23.0482319 9.39990033,22.8553042 C14.0716175,19.0055077 16.2075285,15.41365 17.1766863,13.0777371 C17.4402389,12.4956626 17.6421247,11.8863043 17.7788815,11.2601124 C17.8165187,11.0865462 17.8376896,10.9852992 17.8376896,10.9515502 C17.9434696,10.3809242 17.997802,9.80153572 18,9.22070865 C17.9905907,4.13666302 13.9540013,0 8.99765278,0 Z M16.5839004,10.7225391 C16.5839004,10.7321817 16.5791958,10.7418242 16.5791958,10.7514668 C16.5744911,10.7755732 16.5603772,10.8478925 16.5368539,10.9587821 L16.5368539,10.9684247 C16.4189983,11.5102184 16.2438931,12.0372409 16.0146378,12.5401638 C16.0099332,12.544985 16.0099332,12.5546276 16.0052285,12.5594489 C15.1231067,14.6952784 13.1965526,17.9544675 9.00000511,21.5077549 C4.80345757,17.9520568 2.87455119,14.6976891 1.99478169,12.5594489 C1.99007704,12.5546276 1.99007704,12.544985 1.98537239,12.5401638 C1.75792108,12.0360229 1.5813628,11.5093715 1.45845162,10.9684247 L1.45845162,10.9587821 C1.43022373,10.8478925 1.42081443,10.7779839 1.41610978,10.7514668 C1.41610978,10.7418242 1.41140513,10.7321817 1.41140513,10.7177178 C1.31718672,10.2213208 1.26992126,9.71676618 1.27026564,9.21106608 C1.27026564,4.84780264 4.7399448,1.29451518 8.99530046,1.29451518 C13.2506561,1.29451518 16.7203353,4.85021328 16.7203353,9.21106608 C16.7206906,9.71676671 16.6734251,10.2213224 16.5791958,10.7177178 L16.5839004,10.7225391 Z"/>
        <path d="M9,3 C5.6862915,3 3,5.6862915 3,9 C3,12.3137085 5.6862915,15 9,15 C12.3137085,15 15,12.3137085 15,9 C14.9948971,5.68840749 12.3115925,3.00510288 9,3 Z M9,13.6655684 C6.42327774,13.6655684 4.33443163,11.5767223 4.33443163,9 C4.33443163,6.42327774 6.42327774,4.33443163 9,4.33443163 C11.5767223,4.33443163 13.6655684,6.42327774 13.6655684,9 C13.6625046,11.5754521 11.5754521,13.6625046 9,13.6655684 Z"/>
      </g>
    </g>
  </g>
</svg>
