<svg xmlns="http://www.w3.org/2000/svg" width="29" height="29" viewBox="0 0 29 29">
  <g fill="none" fill-rule="evenodd">
    <circle cx="14.5" cy="14.5" r="14.5" fill="#FFF"/>
    <path fill="#7458FB" d="M7,6 C6.447,6 6,6.447 6,7 C6,16.388 13.612,24 23,24 C23.553,24 24,23.553 24,23 L24,19.5 C24,18.948 23.553,18.501 23,18.501 C21.752,18.501 20.552,18.3 19.428,17.932 C19.328,17.9 19.223,17.884 19.119,17.884 C18.864,17.884 18.608,17.982 18.413,18.177 L16.212,20.38 C13.38,18.94 11.065,16.625 9.623,13.794 L11.823,11.587 C12.098,11.313 12.179,10.918 12.068,10.572 C11.7,9.447 11.499,8.247 11.499,7 C11.499,6.447 11.052,6 10.5,6 L7,6 Z"/>
  </g>
</svg>
