<svg xmlns="http://www.w3.org/2000/svg" width="54" height="54" viewBox="0 0 54 54">
  <defs>
    <linearGradient id="groupw-a" x1="-50.577%" x2="118.168%" y1="-106.069%" y2="162.663%">
      <stop offset="0%" stop-color="#3FACFE"/>
      <stop offset="100%" stop-color="#933DFA"/>
    </linearGradient>
  </defs>
  <g fill="none" fill-rule="evenodd">
    <circle cx="27" cy="27" r="27" fill="url(#groupw-a)"/>
    <path fill="#FFF" fill-rule="nonzero" d="M27,18 C22.05,18 18,22.05 18,27 C18,31.95 22.05,36 27,36 C31.95,36 36,31.95 36,27 C36,22.05 31.95,18 27,18 Z M28.125,33.6375 L28.125,31.5 L25.875,31.5 L25.875,33.6375 C23.0625,33.1875 20.8125,30.9375 20.3625,28.125 L22.5,28.125 L22.5,25.875 L20.3625,25.875 C20.8125,23.0625 23.0625,20.8125 25.875,20.3625 L25.875,22.5 L28.125,22.5 L28.125,20.3625 C30.9375,20.8125 33.1875,23.0625 33.6375,25.875 L31.5,25.875 L31.5,28.125 L33.6375,28.125 C33.1875,30.9375 30.9375,33.1875 28.125,33.6375 Z"/>
  </g>
</svg>
