<svg xmlns="http://www.w3.org/2000/svg" width="21" height="18" viewBox="0 0 21 18">
  <path fill="#FFF" fill-rule="evenodd" d="M19.9440281,3.0058875 L19.9440281,3.0058875 L14.7563719,3.0058875 L14.7563719,1.45910625 C14.7563719,0.63879375 14.1145594,0.0002625 13.2968719,0.0002625 L7.64918438,0.0002625 C6.82821563,0.0002625 6.10109063,0.63879375 6.10109063,1.45910625 L6.10109063,3.0058875 L0.902278125,3.0058875 C0.364809375,3.0058875 -6.5625e-05,3.46395 -6.5625e-05,4.00995 L-6.5625e-05,7.1967 L8.73462188,9.20023125 C8.73462188,7.10285625 12.1110281,7.10285625 12.1110281,9.20023125 L20.9480906,7.1967 L20.9480906,4.00995 C20.9480906,3.46395 20.4874031,3.0058875 19.9440281,3.0058875 M8.73462188,10.3854187 L-6.5625e-05,8.38123125 L-6.5625e-05,16.3979812 C-6.5625e-05,16.85145 0.364809375,17.3088562 0.902278125,17.3088562 L19.9440281,17.3088562 C20.4874031,17.3088562 20.9480906,16.85145 20.9480906,16.3979812 L20.9480906,8.38123125 L12.1110281,10.3854187 C12.1110281,13.7552625 8.73462188,13.7552625 8.73462188,10.3854187" opacity=".553"/>
</svg>
