<svg xmlns="http://www.w3.org/2000/svg" xmlns:xlink="http://www.w3.org/1999/xlink" width="164" height="130" viewBox="0 0 164 130">
  <defs>
    <linearGradient id="page-2-a" x1="0%" y1="-87.496%" y2="131.091%">
      <stop offset="0%" stop-color="#F3E9FF"/>
      <stop offset="100%" stop-color="#E4CEFD"/>
    </linearGradient>
    <linearGradient id="page-2-b" x1="19.985%" x2="66.305%" y1="-13.333%" y2="84.476%">
      <stop offset="0%" stop-color="#F3E9FF"/>
      <stop offset="100%" stop-color="#E4CEFD"/>
    </linearGradient>
    <polygon id="page-2-c" points="2.153 2.056 2.153 .028 .128 .028 .128 2.056 2.153 2.056"/>
    <linearGradient id="page-2-e" x1="-50.577%" x2="118.168%" y1="-106.069%" y2="162.663%">
      <stop offset="0%" stop-color="#3FACFE"/>
      <stop offset="100%" stop-color="#933DFA"/>
    </linearGradient>
    <linearGradient id="page-2-f" x1="-7.925%" y1="-19.176%" y2="100%">
      <stop offset="0%" stop-color="#62DFFF"/>
      <stop offset="100%" stop-color="#33BCFF"/>
    </linearGradient>
  </defs>
  <g fill="none" fill-rule="evenodd">
    <path fill="url(#page-2-a)" d="M112.175214,24.2004398 L112.906851,24.2004398 C113.466151,24.2004398 113.919576,24.6542844 113.919576,25.2142468 C113.919576,25.7740652 113.466151,26.2279097 112.906851,26.2279097 L112.175214,26.2279097 C111.615914,26.2279097 111.162345,25.7740652 111.162345,25.2142468 C111.162345,24.6542844 111.615914,24.2004398 112.175214,24.2004398 Z"/>
    <path fill="url(#page-2-b)" d="M111.888745 13.2561196C113.902113 13.294708 115.69596 14.2843252 116.845489 15.7869653 118.416365 11.6156847 122.44353 8.63977762 127.153854 8.63977762 131.771968 8.63977762 135.732673 11.5009277 137.366268 15.5440606 137.658722 15.0987112 137.999222 14.6801433 138.388344 14.296996 139.837088 12.8709565 141.756807 12.1056698 143.788156 12.1384987 147.863224 12.2066041 151.178605 15.6301644 151.178605 19.7702L151.178605 23.2206856C151.178605 23.7609219 151.617788 24.2005118 152.157525 24.2005118L154.294318 24.2005118C154.853619 24.2005118 155.307187 24.6543564 155.307187 25.2141748 155.307187 25.7739932 154.853619 26.2279817 154.294318 26.2279817L152.157525 26.2279817C150.50077 26.2279817 149.153011 24.8788309 149.153011 23.2206856L149.153011 19.7702C149.153011 16.7296431 146.731245 14.2154998 143.75435 14.1656806 142.264177 14.1387551 140.866932 14.7008773 139.808749 15.7426176 138.749991 16.7847898 138.166954 18.1769925 138.166954 19.6630742 138.166954 20.2228926 137.713386 20.6767372 137.154085 20.6767372 136.594785 20.6767372 136.14136 20.2228926 136.14136 19.6630742 136.14136 14.7027491 132.109591 10.6672475 127.153854 10.6672475 122.198117 10.6672475 118.166348 14.7027491 118.166348 19.6630742 118.166348 20.2228926 117.712779 20.6767372 117.153479 20.6767372 116.594178 20.6767372 116.140753 20.2228926 116.140753 19.6630742 116.140753 17.2933491 114.215856 15.3285132 111.849905 15.2831576 110.697067 15.2664552 109.595153 15.7059011 108.750304 16.5355497 107.884309 17.3859323 107.387584 18.5646034 107.387584 19.769624L107.387584 22.1441007C107.387584 23.2779921 108.30925 24.2005118 109.442093 24.2005118 110.001394 24.2005118 110.454818 24.6543564 110.454818 25.2141748 110.454818 25.7739932 110.001394 26.2279817 109.442093 26.2279817 107.192232 26.2279817 105.361989 24.3960451 105.361989 22.1441007L105.361989 19.769624C105.361989 18.0237912 106.07996 16.3175545 107.331769 15.0882002 108.56833 13.8741085 110.186533 13.220699 111.888745 13.2561196zM157.228273 24.2004398L160.027221 24.2004398C160.586522 24.2004398 161.039946 24.6542844 161.039946 25.2142468 161.039946 25.7740652 160.586522 26.2279097 160.027221 26.2279097L157.228273 26.2279097C156.668972 26.2279097 156.215547 25.7740652 156.215547 25.2142468 156.215547 24.6542844 156.668972 24.2004398 157.228273 24.2004398"/>
    <g transform="translate(161.403 24.172)">
      <mask id="page-2-d" fill="#fff">
        <use xlink:href="#page-2-c"/>
      </mask>
      <path fill="url(#page-2-b)" d="M1.14055316,0.0284084801 C1.40797595,0.0284084801 1.66719911,0.135822196 1.85564659,0.324300151 C2.04409406,0.513066079 2.15342237,0.774545044 2.15342237,1.04207143 C2.15342237,1.3097418 2.04409406,1.56934895 1.85564659,1.75984271 C1.66719911,1.94846465 1.40797595,2.05587837 1.14055316,2.05587837 C0.873274224,2.05587837 0.611893262,1.94846465 0.423589642,1.75984271 C0.235142168,1.56934895 0.127827805,1.307726 0.127827805,1.04207143 C0.127827805,0.774545044 0.235142168,0.514937899 0.423589642,0.324300151 C0.611893262,0.135822196 0.873274224,0.0284084801 1.14055316,0.0284084801" mask="url(#page-2-d)"/>
    </g>
    <path fill="url(#page-2-b)" d="M48.4927712,8.83230159 L48.9082188,8.83230159 C49.4676632,8.83230159 49.9209441,9.28614614 49.9209441,9.84596454 C49.9209441,10.4059269 49.4676632,10.8597715 48.9082188,10.8597715 L48.4927712,10.8597715 C47.9333268,10.8597715 47.4800459,10.4059269 47.4800459,9.84596454 C47.4800459,9.28614614 47.9333268,8.83230159 48.4927712,8.83230159"/>
    <path fill="url(#page-2-b)" d="M46.1103924 2.62030433C47.13851 2.64003044 48.074274 3.05255095 48.7827502 3.70783221 49.8814996 1.51189845 52.1502058.0000431958644 54.7663171.0000431958644 57.309351.0000431958644 59.5249754 1.42795449 60.6560918 3.52453776 60.7143523 3.46089585 60.7740513 3.39811786 60.836052 3.33706771 61.7426138 2.44449716 62.936594 1.96444712 64.2154474 1.98590107 66.7658179 2.02866497 68.840754 4.16844411 68.840754 6.75602037L68.840754 8.71452086C68.840754 8.77945865 68.8935481 8.83230159 68.9584258 8.83230159L70.1715384 8.83230159C70.730839 8.83230159 71.1842638 9.28614614 71.1842638 9.84596454 71.1842638 10.4059269 70.730839 10.8597715 70.1715384 10.8597715L68.9584258 10.8597715C67.7766731 10.8597715 66.8151594 9.89736762 66.8151594 8.71452086L66.8151594 6.75602037C66.8151594 5.26777886 65.6338383 4.03741665 64.181642 4.01322697 63.4272767 4.01279501 62.7616687 4.28521693 62.256313 4.78254532 61.7397367 5.29096064 61.4553393 5.9702876 61.4553393 6.6951142 61.4553393 7.25507659 61.0019145 7.70892114 60.4426139 7.70892114 59.8831695 7.70892114 59.4297447 7.25507659 59.4297447 6.6951142 59.4297447 4.12136062 57.33769 2.02751308 54.7663171 2.02751308 52.1949441 2.02751308 50.1030333 4.12136062 50.1030333 6.6951142 50.1030333 7.25507659 49.6496085 7.70892114 49.0901641 7.70892114 48.5307196 7.70892114 48.0774387 7.25507659 48.0774387 6.6951142 48.0774387 5.58728427 47.1774942 4.66865222 46.071552 4.64734226 45.5365626 4.63683127 45.0221442 4.84503533 44.6271237 5.23307818 44.2190127 5.63379182 43.9849638 6.18871469 43.9849638 6.7557324L43.9849638 8.10344337C43.9849638 8.5053089 44.3115102 8.83230159 44.7131478 8.83230159 45.2725923 8.83230159 45.7260171 9.28614614 45.7260171 9.84596454 45.7260171 10.4059269 45.2725923 10.8597715 44.7131478 10.8597715 43.1947791 10.8597715 41.9593692 9.62321787 41.9593692 8.10344337L41.9593692 6.7557324C41.9593692 5.64775848 42.4148079 4.56527012 43.208589 3.78572875 43.9950335 3.0133867 45.0301999 2.60029025 46.1103924 2.62030433zM73.659658 8.83230159L75.2483709 8.83230159C75.8076715 8.83230159 76.2612401 9.28614614 76.2612401 9.84596454 76.2612401 10.4059269 75.8076715 10.8597715 75.2483709 10.8597715L73.659658 10.8597715C73.1002135 10.8597715 72.6469326 10.4059269 72.6469326 9.84596454 72.6469326 9.28614614 73.1002135 8.83230159 73.659658 8.83230159M79.3090687 8.83230159C79.5764915 8.83230159 79.8378725 8.9397153 80.0261761 9.12833725 80.2144797 9.3168152 80.323808 9.57829417 80.323808 9.84596454 80.323808 10.1136349 80.2144797 10.3752579 80.0261761 10.56172 79.8378725 10.7522138 79.5764915 10.8597715 79.3090687 10.8597715 79.0436599 10.8597715 78.7825666 10.7522138 78.5939753 10.56172 78.4056717 10.3730981 78.2982134 10.1136349 78.2982134 9.84596454 78.2982134 9.57829417 78.4056717 9.31883101 78.5939753 9.12833725 78.7825666 8.9397153 79.0436599 8.83230159 79.3090687 8.83230159"/>
    <path fill="url(#page-2-b)" d="M7.32268042,7.69669671 C8.73244015,3.26537697 12.8823125,0.045989197 17.7704385,0.045989197 C22.2903008,0.045989197 26.1793676,2.79842968 27.8542485,6.71643856 C29.3494569,4.11072004 32.1561734,2.35063255 35.3675485,2.35063255 C38.8659104,2.35063255 41.8840909,4.43857665 43.2492562,7.43392187 C44.2965063,6.10046554 45.9072287,5.22574928 47.7122966,5.19119259 C49.3310748,5.1900407 50.7601108,5.77980824 51.8579971,6.85768904 C52.9960185,7.97516605 53.6486797,9.52647353 53.6486797,11.1137776 C53.6486797,13.6565741 55.7154162,15.7252241 58.255717,15.7252241 L59.6020375,15.7252241 C60.1614819,15.7252241 60.6147628,16.1790686 60.6147628,16.738887 C60.6147628,17.2988494 60.1614819,17.7526939 59.6020375,17.7526939 L58.255717,17.7526939 C54.5985413,17.7526939 51.6230851,14.7744831 51.6230851,11.1137776 C51.6230851,10.0674297 51.191526,9.04368775 50.4393185,8.30503847 C49.7063873,7.5851074 48.7470314,7.20167211 47.750993,7.21823052 C45.6980664,7.25768274 44.027645,8.96247953 44.027645,11.0187467 C44.027645,11.5785651 43.5743641,12.0324096 43.0149196,12.0324096 C42.4554752,12.0324096 42.0020504,11.5785651 42.0020504,11.0187467 C42.0020504,7.35703323 39.0257312,4.37810244 35.3675485,4.37810244 C31.7095097,4.37810244 28.7330466,7.35703323 28.7330466,11.0187467 C28.7330466,11.5785651 28.2797657,12.0324096 27.7203213,12.0324096 C27.1608768,12.0324096 26.7074521,11.5785651 26.7074521,11.0187467 C26.7074521,6.0862109 22.6984119,2.07345909 17.7704385,2.07345909 C12.8424652,2.07345909 8.83342498,6.0862109 8.83342498,11.0187467 C8.83342498,11.5785651 8.38000022,12.0324096 7.82055577,12.0324096 C7.26111132,12.0324096 6.80783042,11.5785651 6.80783042,11.0187467 C6.80783042,10.3669211 6.55062119,9.75771539 6.08396195,9.30315091 C5.61730271,8.84873042 5.00348182,8.60827344 4.34880666,8.6264157 C3.06765155,8.66154834 2.02558018,9.76664253 2.02558018,11.0895879 L2.02558018,13.3318852 C2.02558018,14.6515189 3.09829225,15.7252241 4.41684915,15.7252241 L5.03182087,15.7252241 C5.59126531,15.7252241 6.04469007,16.1790686 6.04469007,16.738887 C6.04469007,17.2988494 5.59126531,17.7526939 5.03182087,17.7526939 L4.41684915,17.7526939 C1.98127344,17.7526939 -1.43853035e-05,15.7695718 -1.43853035e-05,13.3318852 L-1.43853035e-05,11.0895879 C-1.43853035e-05,8.67882668 1.92589002,6.66460353 4.29313554,6.59966574 C5.4225257,6.56654891 6.48459265,6.95948729 7.32268042,7.69669671 Z" transform="translate(0 24.316)"/>
    <path fill="url(#page-2-b)" d="M71.7242737 40.0414576L72.8343875 40.0414576C73.393832 40.0414576 73.8472567 40.4953021 73.8472567 41.0551206 73.8472567 41.6150829 73.393832 42.0689275 72.8343875 42.0689275L71.7242737 42.0689275C71.1648292 42.0689275 70.7115483 41.6150829 70.7115483 41.0551206 70.7115483 40.4953021 71.1648292 40.0414576 71.7242737 40.0414576M63.6451708 40.0414576L67.7156363 40.0414576C68.2749369 40.0414576 68.7283616 40.4953021 68.7283616 41.0551206 68.7283616 41.6150829 68.2749369 42.0689275 67.7156363 42.0689275L63.6451708 42.0689275C63.0857264 42.0689275 62.6323016 41.6150829 62.6323016 41.0551206 62.6323016 40.4953021 63.0857264 40.0414576 63.6451708 40.0414576M8.32540799 40.0414576L11.4500397 40.0414576C12.0094842 40.0414576 12.4629089 40.4953021 12.4629089 41.0551206 12.4629089 41.6150829 12.0094842 42.0689275 11.4500397 42.0689275L8.32540799 42.0689275C7.76596354 42.0689275 7.31268264 41.6150829 7.31268264 41.0551206 7.31268264 40.4953021 7.76596354 40.0414576 8.32540799 40.0414576M130.062692 99.6459334C130.777785 99.6459334 131.357369 99.065813 131.357369 98.3500575 131.357369 97.634302 130.777785 97.0541816 130.062692 97.0541816L101.225481 97.0541816C100.510388 97.0541816 99.9308038 97.634302 99.9308038 98.3500575 99.9308038 99.065813 100.510388 99.6459334 101.225481 99.6459334L130.062692 99.6459334zM135.369373 99.6459334L145.291636 99.6459334C146.006585 99.6459334 146.586313 99.065813 146.586313 98.3500575 146.586313 97.634302 146.006585 97.0541816 145.291636 97.0541816L135.369373 97.0541816C134.654279 97.0541816 134.074695 97.634302 134.074695 98.3500575 134.074695 99.065813 134.654279 99.6459334 135.369373 99.6459334M116.6015 120.157072C117.316594 120.157072 117.896178 119.576952 117.896178 118.861196 117.896178 118.145441 117.316594 117.56532 116.6015 117.56532L101.375376 117.56532C100.660283 117.56532 100.080699 118.145441 100.080699 118.861196 100.080699 119.576952 100.660283 120.157072 101.375376 120.157072L116.6015 120.157072zM120.870699 120.157072L132.521644 120.157072C133.236737 120.157072 133.816321 119.576952 133.816321 118.861196 133.816321 118.145441 133.236737 117.56532 132.521644 117.56532L120.870699 117.56532C120.155605 117.56532 119.576021 118.145441 119.576021 118.861196 119.576021 119.576952 120.155605 120.157072 120.870699 120.157072"/>
    <path fill="url(#page-2-e)" d="M59.9977484,128.562296 C57.5441911,128.562296 55.555279,126.571543 55.555279,124.115714 L55.555279,64.8822329 C55.555279,62.426548 57.5441911,60.4356506 59.9977484,60.4356506 L83.6794102,60.4356506 C86.1329675,60.4356506 88.1218795,62.426548 88.1218795,64.8822329 L88.1218795,124.115714 C88.1218795,126.571543 86.1329675,128.562296 83.6794102,128.562296 L59.9977484,128.562296 Z"/>
    <path fill="#26173A" d="M59.7612828,61.7315698 C58.2619026,61.7315698 57.0421728,62.9524289 57.0421728,64.4530532 L57.0421728,124.544836 C57.0421728,126.04546 58.2619026,127.266319 59.7612828,127.266319 L84.3004525,127.266319 C85.7996888,127.266319 87.0194187,126.04546 87.0194187,124.544836 L87.0194187,64.4530532 C87.0194187,62.9524289 85.7996888,61.7315698 84.3004525,61.7315698 L59.7612828,61.7315698 Z M84.3004525,129.858071 L59.7612828,129.858071 C56.8341613,129.858071 54.4528182,127.474667 54.4528182,124.544836 L54.4528182,64.4530532 C54.4528182,61.5233657 56.8341613,59.1398179 59.7612828,59.1398179 L84.3004525,59.1398179 C87.227574,59.1398179 89.6087733,61.5233657 89.6087733,64.4530532 L89.6087733,124.544836 C89.6087733,127.474667 87.227574,129.858071 84.3004525,129.858071 L84.3004525,129.858071 Z"/>
    <path fill="#26173A" d="M74.3104635 122.923954C74.3104635 124.184122 73.2898262 125.205704 72.0308245 125.205704 70.7718227 125.205704 69.7511855 124.184122 69.7511855 122.923954 69.7511855 121.663787 70.7718227 120.642205 72.0308245 120.642205 73.2898262 120.642205 74.3104635 121.663787 74.3104635 122.923954M73.0901726 66.017881C73.0901726 66.6034729 72.6158892 67.0781955 72.0308389 67.0781955 71.4457886 67.0781955 70.9715051 66.6034729 70.9715051 66.017881 70.9715051 65.4322891 71.4457886 64.9575665 72.0308389 64.9575665 72.6158892 64.9575665 73.0901726 65.4322891 73.0901726 66.017881M74.5601636 69.7886064L69.1170525 69.7886064C68.7595777 69.7886064 68.4697139 69.4984742 68.4697139 69.1406684 68.4697139 68.7828627 68.7595777 68.4927305 69.1170525 68.4927305L74.5601636 68.4927305C74.9176384 68.4927305 75.2075022 68.7828627 75.2075022 69.1406684 75.2075022 69.4984742 74.9176384 69.7886064 74.5601636 69.7886064"/>
    <polygon fill="#26173A" points="55.747 74.653 88.314 74.653 88.314 72.061 55.747 72.061"/>
    <polygon fill="#26173A" points="55.747 118.576 88.314 118.576 88.314 115.984 55.747 115.984"/>
    <polygon fill="#FFF" points="56.997 115.964 86.903 115.964 86.903 74.583 56.997 74.583"/>
    <path fill="#26173A" d="M64.9959077 105.62332L62.7385659 105.62332C62.3809472 105.62332 62.0912272 105.333187 62.0912272 104.975382 62.0912272 104.617576 62.3809472 104.327444 62.7385659 104.327444L64.9959077 104.327444C65.3533825 104.327444 65.6432463 104.617576 65.6432463 104.975382 65.6432463 105.333187 65.3533825 105.62332 64.9959077 105.62332M70.3742417 105.62332L68.1168999 105.62332C67.7592813 105.62332 67.4695613 105.333187 67.4695613 104.975382 67.4695613 104.617576 67.7592813 104.327444 68.1168999 104.327444L70.3742417 104.327444C70.7317165 104.327444 71.0215804 104.617576 71.0215804 104.975382 71.0215804 105.333187 70.7317165 105.62332 70.3742417 105.62332M75.7525758 105.62332L73.495234 105.62332C73.1376153 105.62332 72.8478953 105.333187 72.8478953 104.975382 72.8478953 104.617576 73.1376153 104.327444 73.495234 104.327444L75.7525758 104.327444C76.1100506 104.327444 76.3999144 104.617576 76.3999144 104.975382 76.3999144 105.333187 76.1100506 105.62332 75.7525758 105.62332M81.1309098 105.62332L78.873568 105.62332C78.5159494 105.62332 78.2262294 105.333187 78.2262294 104.975382 78.2262294 104.617576 78.5159494 104.327444 78.873568 104.327444L81.1309098 104.327444C81.4883846 104.327444 81.7782485 104.617576 81.7782485 104.975382 81.7782485 105.333187 81.4883846 105.62332 81.1309098 105.62332"/>
    <path fill="url(#page-2-f)" d="M54.4527462,92.5044763 C49.5095245,92.5044763 45.5022105,88.4934524 45.5022105,83.5456541 C45.5022105,78.5978558 49.5095245,74.5868318 54.4527462,74.5868318 C59.395968,74.5868318 63.403282,78.5978558 63.403282,83.5456541 C63.403282,88.4934524 59.395968,92.5044763 54.4527462,92.5044763 Z"/>
    <path fill="#26173A" d="M54.4528038,74.6440807 C49.5489977,74.6440807 45.5593777,78.6372504 45.5593777,83.5455965 C45.5593777,88.4539425 49.5489977,92.4472562 54.4528038,92.4472562 C59.3566098,92.4472562 63.346086,88.4539425 63.346086,83.5455965 C63.346086,78.6372504 59.3566098,74.6440807 54.4528038,74.6440807 M54.4528038,94.6776027 C48.320349,94.6776027 43.3310942,89.6838728 43.3310942,83.5455965 C43.3310942,77.4074641 48.320349,72.4137343 54.4528038,72.4137343 C60.5852586,72.4137343 65.5743695,77.4074641 65.5743695,83.5455965 C65.5743695,89.6838728 60.5852586,94.6776027 54.4528038,94.6776027"/>
    <polygon fill="#FFF" points="52.851 87.343 49.041 83.761 50.125 82.606 52.847 85.166 58.778 79.538 59.867 80.688"/>
  </g>
</svg>
