<svg xmlns="http://www.w3.org/2000/svg" xmlns:xlink="http://www.w3.org/1999/xlink" width="108" height="96" viewBox="0 0 108 96">
  <defs>
    <linearGradient id="page-4-a" x1="-50.577%" x2="118.168%" y1="-106.069%" y2="162.663%">
      <stop offset="0%" stop-color="#3FACFE"/>
      <stop offset="100%" stop-color="#933DFA"/>
    </linearGradient>
    <polygon id="page-4-b" points="0 .048 0 1.383 1.333 1.383 1.333 .048 0 .048"/>
    <polygon id="page-4-d" points="19.246 .041 .012 .041 .012 7.192 19.246 7.192 19.246 .041"/>
    <polygon id="page-4-f" points="39.95 11.719 39.95 .06 .057 .06 .057 11.719 39.95 11.719"/>
  </defs>
  <g fill="none" fill-rule="evenodd" transform="translate(0 .5)">
    <path fill="url(#page-4-a)" d="M47.2812422,36.0022505 C57.0816583,36.0022505 65.0263424,43.9582635 65.0263424,53.7725599 C65.0263424,63.5868563 57.0816583,71.5428693 47.2812422,71.5428693 C37.4809207,71.5428693 29.5362366,63.5868563 29.5362366,53.7725599 C29.5362366,43.9582635 37.4809207,36.0022505 47.2812422,36.0022505"/>
    <path fill="url(#page-4-a)" d="M55.2212209,41.7558089 C55.2212209,41.7558089 53.5060818,38.0443618 54.8634427,38.0443618 C54.8634427,38.0443618 64.4358805,41.740734 64.9429618,54.0754696 C64.9429618,54.0754696 65.7377616,63.1860833 55.2212209,69.9292819 C55.2212209,69.9292819 53.1460314,70.0736781 54.3408346,68.2418468 C54.3409293,68.2418468 63.9048463,58.9016971 55.2212209,41.7558089"/>
    <path fill="#FFFBFB" d="M53.6749827,39.3775664 C53.6749827,39.3775664 50.5422692,34.765231 49.9146661,38.3647071 C49.9146661,38.3647071 55.4216487,56.8161342 50.4382209,69.4557799 C50.4382209,69.4557799 49.4145908,71.2602111 51.3933061,71.3446871 C51.3933061,71.3446871 56.3691598,67.7013139 56.8690458,63.1759197 C56.8689511,63.1760145 61.6454185,49.2226761 53.6749827,39.3775664"/>
    <path fill="#F9F4F4" d="M50.8872189,37.1393683 C50.8872189,37.1393683 61.1177453,53.8086447 51.3420394,71.6788842 C51.3420394,71.6788842 57.1185628,65.9652315 57.229617,61.9603463 C57.2297117,61.9604411 62.9850277,49.0847176 50.8872189,37.1393683"/>
    <path fill="#FFFBFB" d="M40.7734178,39.2106811 C40.7734178,39.2106811 43.9061313,34.5985354 44.5337344,38.1978219 C44.5337344,38.1978219 39.0267518,56.6494386 44.0101795,69.2889895 C44.0101795,69.2889895 45.0339044,71.0935155 43.0550944,71.1779915 C43.0550944,71.1779915 38.0792407,67.5344286 37.5793547,63.0091292 C37.5794494,63.0091292 32.8030767,49.0558857 40.7734178,39.2106811"/>
    <path fill="#322A63" d="M47.1980414,72.6801482 C36.9539765,72.6801482 28.6197979,64.334275 28.6197979,54.0755075 C28.6197979,52.3341252 28.860084,50.6098089 29.3340289,48.9503428 L29.5114506,48.3313258 C29.6382209,47.8883718 30.100142,47.6318149 30.5421814,47.7595245 C30.9845047,47.8866652 31.2400336,48.3488658 31.1129792,48.791725 L30.9357469,49.4099835 C30.5047846,50.9191751 30.2860845,52.4893298 30.2860845,54.0754127 C30.2860845,63.4138558 37.872801,71.0112959 47.1980414,71.0112959 C56.5232819,71.0112959 64.1099984,63.4138558 64.1099984,54.0754127 C64.1099984,44.7368748 56.5233765,37.1393398 47.1980414,37.1393398 C41.909475,37.1393398 37.0228055,39.5489456 33.7913456,43.7501831 C33.5108224,44.1154875 32.9875516,44.1830873 32.6229568,43.9020694 C32.2584566,43.6209566 32.1904797,43.0969396 32.4713815,42.7320145 C36.0207613,38.1173089 41.388287,35.4706771 47.1980414,35.4706771 C57.4421064,35.4706771 65.7761903,43.8166452 65.7761903,54.0754127 C65.7761903,64.3340853 57.4421064,72.6801482 47.1980414,72.6801482"/>
    <path fill="#322A63" d="M31.1798484,47.2519192 C31.0593267,47.2519192 30.9369114,47.2257515 30.8210288,47.1700978 C30.4059719,46.9712804 30.2304438,46.4730519 30.428978,46.0574032 C30.6212637,45.6550279 30.8304963,45.2545489 31.0513739,44.8672485 C31.2794469,44.4669591 31.7882324,44.3275878 32.1878571,44.5560808 C32.5876713,44.784479 32.7266547,45.2941796 32.4984871,45.6943743 C32.2975859,46.0467844 32.1070044,46.4111407 31.932139,46.7772984 C31.7889898,47.0768992 31.4907624,47.2519192 31.1798484,47.2519192"/>
    <path fill="url(#page-4-a)" d="M51.738644,87.948497 C51.738644,88.317025 51.4401326,88.6158673 51.0720347,88.6158673 L42.4906587,88.6158673 C42.1225608,88.6158673 41.8242387,88.317025 41.8242387,87.948497 L40.9910008,81.1903184 C40.9910008,80.8217904 41.2893229,80.5230429 41.6575154,80.5230429 L52.2384353,80.5230429 C52.6065332,80.5230429 52.90495,80.8217904 52.90495,81.1903184 L51.738644,87.948497 Z"/>
    <path fill="url(#page-4-a)" d="M50.5540468,80.8143668 L49.914704,86.8095115 C49.914704,86.8095115 49.6202636,88.186253 48.8705293,88.186253 L51.7035952,88.160749 L52.7029885,81.9703897 C52.7028938,81.9703897 52.9457361,80.367241 50.5540468,80.8143668"/>
    <path fill="#322A63" d="M42.7263436,87.614736 L51.0053264,87.614736 L52.1140698,81.1901951 L41.9343841,81.1901951 L42.7263436,87.614736 Z M51.1554816,89.2833039 L42.5739162,89.2833039 C41.7674714,89.2833039 41.1077734,88.6425753 41.0753944,87.8428498 L40.241115,81.0748109 L40.241115,81.0234237 C40.241115,80.195255 40.9138782,79.5216272 41.7407729,79.5216272 L52.3217875,79.5216272 C53.1487769,79.5216272 53.8215402,80.195255 53.8215402,81.0234237 L53.8215402,81.0949107 L52.652678,87.8669316 C52.6082752,88.6555644 51.9536897,89.2833039 51.1554816,89.2833039 L51.1554816,89.2833039 Z"/>
    <path fill="#322A63" d="M52.9876205 81.8579162C52.8557377 81.8579162 52.7219614 81.8264391 52.5971793 81.7601667 52.1910219 81.5439042 52.036701 81.0388493 52.2526556 80.6319232L61.9500649 62.3612046C62.1659248 61.9543733 62.6702605 61.7998323 63.0767019 62.0160948 63.4831433 62.2323573 63.6372748 62.7374122 63.4215096 63.1444331L53.7240056 81.4150569C53.5743238 81.6971178 53.2858479 81.8579162 52.9876205 81.8579162M41.2417769 81.6486981C40.9434548 81.6486981 40.6550736 81.4879945 40.5052971 81.2058388L30.8077931 62.9352151C30.5918386 62.5283837 30.7462541 62.0231392 31.1525062 61.8068767 31.5588529 61.5906143 32.063378 61.7450604 32.2792378 62.1519865L41.9767418 80.4227051C42.1926964 80.8295364 42.0382808 81.3346861 41.6321235 81.5510434 41.507436 81.6172211 41.373565 81.6486981 41.2417769 81.6486981M47.0312518 80.7605145C46.5712242 80.7605145 46.1982032 80.3869616 46.1982032 79.9262779L46.1982032 72.25024C46.1982032 71.7894616 46.5712242 71.4159087 47.0312518 71.4159087 47.4913742 71.4159087 47.8644898 71.7894616 47.8644898 72.25024L47.8644898 79.9262779C47.8644898 80.3871512 47.4913742 80.7605145 47.0312518 80.7605145M50.1200454 80.7607325C50.021015 80.7607325 49.920091 80.7430978 49.8219127 80.7052685 49.3923705 80.540488 49.1774574 80.0579032 49.3421925 79.6276537L52.8969688 70.3386068C53.061704 69.9085469 53.543507 69.6930429 53.9730492 69.8581078 54.4027807 70.022983 54.6176938 70.5055679 54.4529586 70.9357226L50.8981823 80.2246747C50.7710333 80.5568902 50.4551016 80.7607325 50.1200454 80.7607325M43.7352233 80.5939137C43.4000725 80.5939137 43.0842354 80.3900714 42.9569917 80.0579506L39.4023101 70.7689037C39.2375749 70.338749 39.452488 69.856259 39.8821249 69.6912889 40.3116671 69.5262241 40.7935647 69.7414436 40.9582052 70.1718827L44.5129815 79.4608348C44.677622 79.8910843 44.4628036 80.3735744 44.033072 80.5384496 43.935083 80.5760893 43.8342538 80.5939137 43.7352233 80.5939137"/>
    <path fill="#322A63" d="M52.4906979,71.7770319 C52.3161165,71.7770319 52.140115,71.7221367 51.9898651,71.6089331 C51.62243,71.3317076 51.5490566,70.8084491 51.8260767,70.4405848 C57.4292495,62.9943673 59.0528375,55.2060739 56.65187,47.2918723 C54.8487774,41.3479251 51.3262854,37.5454601 51.2908768,37.5078204 C50.9761759,37.1721916 50.9920814,36.6442874 51.3269482,36.3286637 C51.6619096,36.0129451 52.1885888,36.0289681 52.5038578,36.3637435 C52.6577999,36.5272914 56.2974054,40.4421068 58.2254694,46.7387485 C59.3612899,50.448015 59.6594226,54.2118922 59.1114415,57.9254251 C58.4288321,62.5524561 56.4253118,67.1008892 53.1566445,71.4446267 C52.9929507,71.662501 52.7432918,71.7770319 52.4906979,71.7770319"/>
    <path fill="#322A63" d="M49.4529533 72.3465105C49.3158633 72.3465105 49.1767852 72.3126632 49.0485 72.2408917 48.6464137 72.0168548 48.5019391 71.508766 48.7257517 71.1062011 55.3590872 59.1749785 48.7251836 37.1788757 48.6573014 36.9580624 48.5221996 36.517763 48.769113 36.0508219 49.2087855 35.9154326 49.6484579 35.7795694 50.1145448 36.0270245 50.2499306 36.4673239 50.2674455 36.5240205 52.0036972 42.2240205 52.8634443 49.3670344 54.0275727 59.0358917 53.1253164 66.6231871 50.1815749 71.9179676 50.0292423 72.1920644 49.7454055 72.3465105 49.4529533 72.3465105M42.0220913 71.7770319C41.7694028 71.7770319 41.5198385 71.662501 41.3560501 71.4447216 38.0874774 67.100984 36.0838625 62.5524561 35.401253 57.92552 34.8533666 54.2118922 35.1514994 50.4481098 36.2873198 46.7388433 38.2152892 40.4422016 41.8549893 36.5272914 42.0089315 36.3638383 42.3245792 36.028494 42.8517316 36.0128503 43.1866931 36.3291377 43.5212759 36.6451407 43.5368973 37.1725709 43.2218177 37.5079152 43.1865985 37.5455549 39.6641064 41.34802 37.8607299 47.2919671 35.4598571 55.2062635 37.0836344 62.9944621 42.6869018 70.4406796 42.9637326 70.8085439 42.8903592 71.3317076 42.5229241 71.6091228 42.3725796 71.7221367 42.1966727 71.7770319 42.0220913 71.7770319"/>
    <path fill="#322A63" d="M45.0597223,72.3465105 C44.755625,72.3465105 44.4626048,72.179265 44.3158579,71.8891452 C41.5948876,66.5114057 40.7613656,58.9080873 41.838298,49.290238 C42.6344233,42.1788907 44.2422005,36.5380524 44.2584846,36.4818298 C44.3857284,36.039255 44.8477442,35.7840254 45.2894995,35.9109765 C45.7316335,36.0384017 45.9868783,36.5008867 45.8596346,36.9435564 C45.7968648,37.1622839 39.6447643,58.9651632 45.8022613,71.1349286 C46.0102631,71.5458368 45.846096,72.0479526 45.4355836,72.256251 C45.3148725,72.3175933 45.1863033,72.3465105 45.0597223,72.3465105"/>
    <path fill="#D9D1FF" d="M42.8418191 94.9592315L35.1738711 94.9592315C34.7032399 94.9592315 34.3217928 94.5772405 34.3217928 94.1059381 34.3217928 93.6346357 34.7032399 93.2526447 35.1738711 93.2526447L42.8418191 93.2526447C43.3124504 93.2526447 43.6938975 93.6346357 43.6938975 94.1059381 43.6938975 94.5772405 43.3124504 94.9592315 42.8418191 94.9592315M50.8068869 94.9592315C50.3362556 94.9592315 49.9548085 94.5772405 49.9548085 94.1059381 49.9548085 93.6346357 50.3362556 93.2526447 50.8068869 93.2526447L60.8278019 93.2526447C61.2984332 93.2526447 61.6798803 93.6346357 61.6798803 94.1059381 61.6798803 94.5772405 61.2984332 94.9592315 60.8278019 94.9592315L50.8068869 94.9592315zM47.4427015 94.9592221L46.7761869 94.9592221C46.3055556 94.9592221 45.9241085 94.577231 45.9241085 94.1059286 45.9241085 93.6346262 46.3055556 93.2526352 46.7761869 93.2526352L47.4427015 93.2526352C47.9133328 93.2526352 48.2947799 93.6346262 48.2947799 94.1059286 48.2947799 94.577231 47.9133328 94.9592221 47.4427015 94.9592221M33.8160464 16.0300649L33.3345274 16.0300649C32.9664296 16.0300649 32.6680128 16.3289072 32.6680128 16.6976248 32.6680128 17.0662475 32.9664296 17.3650898 33.3345274 17.3650898L33.8160464 17.3650898C34.1841442 17.3650898 34.4826557 17.0662475 34.4826557 16.6976248 34.4826557 16.3289072 34.1841442 16.0300649 33.8160464 16.0300649"/>
    <path fill="#D9D1FF" d="M37.0037189 10.0299426C36.1898894 9.2305015 35.1248861 8.800252 34.0045924 8.82357535 32.6795158 8.84898453 31.4989139 9.50061627 30.742363 10.4900574 29.7085079 7.7434007 27.0580708 5.78385978 23.9580203 5.78385978 20.9186567 5.78385978 18.3119596 7.66783683 17.236826 10.3301123 17.044351 10.0368638 16.8202544 9.76125 16.5641575 9.50895958 15.6106818 8.56995758 14.3472389 8.06604042 13.0103279 8.08765719 10.3283639 8.1325025 8.14638053 10.3868089 8.14638053 13.1128917L8.14638053 15.3849276C8.14638053 15.7406562 7.85733661 16.0301123 7.5021146 16.0301123L6.09580658 16.0301123C5.72770872 16.0301123 5.42919726 16.3289546 5.42919726 16.6975773 5.42919726 17.0662001 5.72770872 17.3651372 6.09580658 17.3651372L7.5021146 17.3651372C8.5924909 17.3651372 9.47950449 16.476764 9.47950449 15.3849276L9.47950449 13.1128917C9.47950449 11.1107809 11.0733644 9.45529691 13.0325766 9.42249251 14.0133189 9.40476297 14.9329008 9.77490269 15.6293328 10.4608558 16.3261436 11.1470933 16.7098629 12.0638149 16.7098629 13.0423528 16.7098629 13.4109755 17.0083744 13.7098179 17.3764722 13.7098179 17.7445701 13.7098179 18.0429869 13.4109755 18.0429869 13.0423528 18.0429869 9.77613523 20.6964536 7.11888473 23.9580203 7.11888473 27.219587 7.11888473 29.8730537 9.77613523 29.8730537 13.0423528 29.8730537 13.4109755 30.1714705 13.7098179 30.539663 13.7098179 30.9077609 13.7098179 31.2061777 13.4109755 31.2061777 13.0423528 31.2061777 11.4819636 32.4730288 10.1881811 34.0301547 10.1583159 34.7888832 10.1473179 35.5140966 10.4366791 36.0701251 10.9829765 36.6400708 11.5429266 36.9668902 12.3190444 36.9668902 13.1125125L36.9668902 14.6760304C36.9668902 15.4226622 36.3603998 16.0301123 35.6148312 16.0301123 35.2467333 16.0301123 34.9483165 16.3289546 34.9483165 16.6975773 34.9483165 17.0662001 35.2467333 17.3651372 35.6148312 17.3651372 37.095554 17.3651372 38.3001088 16.1588648 38.3001088 14.6760304L38.3001088 13.1125125C38.3001088 11.9629366 37.827584 10.8394336 37.0037189 10.0299426M4.1648455 16.0300649L2.32274672 16.0300649C1.95464886 16.0300649 1.65623208 16.3289072 1.65623208 16.6976248 1.65623208 17.0662475 1.95464886 17.3650898 2.32274672 17.3650898L4.1648455 17.3650898C4.53294336 17.3650898 4.83136014 17.0662475 4.83136014 16.6976248 4.83136014 16.3289072 4.53294336 16.0300649 4.1648455 16.0300649"/>
    <g transform="translate(0 15.982)">
      <mask id="page-4-c" fill="#fff">
        <use xlink:href="#page-4-b"/>
      </mask>
      <path fill="#D9D1FF" d="M0.666590382,0.0480404192 C0.490588859,0.0480404192 0.319983833,0.118768962 0.195959092,0.242875749 C0.0719343501,0.367172156 -1.89350751e-05,0.539347804 -1.89350751e-05,0.715505489 C-1.89350751e-05,0.891757984 0.0719343501,1.0627011 0.195959092,1.18813523 C0.319983833,1.31233683 0.490588859,1.38306537 0.666590382,1.38306537 C0.842497229,1.38306537 1.01452239,1.31233683 1.13845245,1.18813523 C1.26247719,1.0627011 1.33310502,0.890430639 1.33310502,0.715505489 C1.33310502,0.539347804 1.26247719,0.368404691 1.13845245,0.242875749 C1.01452239,0.118768962 0.842497229,0.0480404192 0.666590382,0.0480404192" mask="url(#page-4-c)"/>
    </g>
    <path fill="#D9D1FF" d="M75.7279924,5.91063074 L75.4545699,5.91063074 C75.0863774,5.91063074 74.7880553,6.20947305 74.7880553,6.57809581 C74.7880553,6.94681337 75.0863774,7.24565569 75.4545699,7.24565569 L75.7279924,7.24565569 C76.0961849,7.24565569 76.394507,6.94681337 76.394507,6.57809581 C76.394507,6.20947305 76.0961849,5.91063074 75.7279924,5.91063074"/>
    <g transform="translate(60.782 .054)">
      <mask id="page-4-e" fill="#fff">
        <use xlink:href="#page-4-d"/>
      </mask>
      <path fill="#D9D1FF" d="M18.4241215,2.53357984 C17.9065312,2.02501697 17.2252472,1.75300599 16.5143298,1.76618463 C15.8376849,1.77917365 15.2218216,2.05080539 14.7555454,2.48228743 C14.0324149,1.03633433 12.5392895,0.0408253493 10.8175232,0.0408253493 C9.14385188,0.0408253493 7.68566175,0.98105988 6.94122928,2.36159381 C6.90288575,2.31968762 6.86359547,2.2783503 6.82279038,2.2381507 C6.22614617,1.65042116 5.44034055,1.33432335 4.59867647,1.3484501 C2.92017674,1.37660878 1.55457913,2.78558583 1.55457913,4.48942315 L1.55457913,5.77903393 C1.55457913,5.82179341 1.51983327,5.85658882 1.47713467,5.85658882 L0.678737233,5.85658882 C0.310639374,5.85658882 0.0122225909,6.15543114 0.0122225909,6.52405389 C0.0122225909,6.89277146 0.310639374,7.19161377 0.678737233,7.19161377 L1.47713467,7.19161377 C2.25489288,7.19161377 2.88770309,6.5579012 2.88770309,5.77903393 L2.88770309,4.48942315 C2.88770309,3.50946307 3.66517727,2.69930838 4.62092518,2.68338024 C4.6312448,2.68319062 4.64128039,2.68309581 4.65141065,2.68309581 C5.11740285,2.68309581 5.55546581,2.86247705 5.8880604,3.1899521 C6.22803968,3.52472754 6.41521289,3.97204291 6.41521289,4.44931836 C6.41521289,4.81803593 6.71362968,5.11687824 7.08172753,5.11687824 C7.44992007,5.11687824 7.74833685,4.81803593 7.74833685,4.44931836 C7.74833685,2.75458283 9.12520083,1.3758503 10.8175232,1.3758503 C12.5098455,1.3758503 13.8866148,2.75458283 13.8866148,4.44931836 C13.8866148,4.81803593 14.1850316,5.11687824 14.5532241,5.11687824 C14.9214167,5.11687824 15.2197388,4.81803593 15.2197388,4.44931836 C15.2197388,3.71984731 15.8120279,3.11495709 16.5398922,3.10092515 C16.8919899,3.09400399 17.2305491,3.2310998 17.4905276,3.48661377 C17.7591217,3.75047106 17.9131585,4.11587026 17.9131585,4.48923353 L17.9131585,5.37665868 C17.9131585,5.64127445 17.6982454,5.85658882 17.4339118,5.85658882 C17.0657192,5.85658882 16.7673024,6.15543114 16.7673024,6.52405389 C16.7673024,6.89277146 17.0657192,7.19161377 17.4339118,7.19161377 C18.4332103,7.19161377 19.2462825,6.37738224 19.2462825,5.37665868 L19.2462825,4.48923353 C19.2462825,3.75966766 18.9465402,3.04688323 18.4241215,2.53357984" mask="url(#page-4-e)"/>
    </g>
    <path fill="#D9D1FF" d="M59.1646586 5.91063074L58.1190637 5.91063074C57.7509659 5.91063074 57.4525491 6.20947305 57.4525491 6.57809581 57.4525491 6.94681337 57.7509659 7.24565569 58.1190637 7.24565569L59.1646586 7.24565569C59.5328511 7.24565569 59.8311732 6.94681337 59.8311732 6.57809581 59.8311732 6.20947305 59.5328511 5.91063074 59.1646586 5.91063074M55.4465578 5.91063074C55.2705562 5.91063074 55.0985311 5.98135928 54.974601 6.10556088 54.850671 6.22966766 54.7787177 6.40184331 54.7787177 6.57809581 54.7787177 6.7543483 54.850671 6.92661876 54.974601 7.0493982 55.0985311 7.17483234 55.2705562 7.24565569 55.4465578 7.24565569 55.6212338 7.24565569 55.7930696 7.17483234 55.9171891 7.0493982 56.0411191 6.92519661 56.1118416 6.7543483 56.1118416 6.57809581 56.1118416 6.40184331 56.0411191 6.23099501 55.9171891 6.10556088 55.7930696 5.98135928 55.6212338 5.91063074 55.4465578 5.91063074"/>
    <g transform="translate(67.693 16.077)">
      <mask id="page-4-g" fill="#fff">
        <use xlink:href="#page-4-f"/>
      </mask>
      <path fill="#D9D1FF" d="M37.1246289,4.37499651 C36.3813325,4.35319012 35.6823442,4.61192764 35.1307654,5.09735679 C34.2029468,2.17947255 31.4717515,0.0596072854 28.2546823,0.0596072854 C25.279982,0.0596072854 22.7204332,1.8720025 21.6181278,4.45188772 C20.634072,2.73610429 18.7868607,1.57714222 16.673233,1.57714222 C14.3709172,1.57714222 12.3845332,2.95198752 11.4860639,4.92432784 C10.7968271,4.04628892 9.73674695,3.47031587 8.54876034,3.44756138 C8.5243341,3.44708733 8.5000972,3.44680289 8.47586031,3.44680289 C7.48337835,3.44680289 6.54287317,3.83514621 5.82031071,4.54489671 C5.07133381,5.28072006 4.64179163,6.30220709 4.64179163,7.34739671 C4.64179163,9.021748 3.28159052,10.3838887 1.60971807,10.3838887 L0.723651231,10.3838887 C0.355458696,10.3838887 0.057136589,10.682731 0.057136589,11.0513538 C0.057136589,11.4200714 0.355458696,11.7189137 0.723651231,11.7189137 L1.60971807,11.7189137 C4.01665013,11.7189137 5.97491559,9.75785579 5.97491559,7.34739671 C5.97491559,6.65840968 6.25894172,5.98430788 6.75399926,5.49793064 C7.23637029,5.02387874 7.86776037,4.7713987 8.52329267,4.7823019 C9.87440495,4.80827994 10.9737754,5.93083483 10.9737754,7.28482186 C10.9737754,7.65344461 11.2720975,7.95228693 11.64029,7.95228693 C12.0084826,7.95228693 12.3068994,7.65344461 12.3068994,7.28482186 C12.3068994,4.8736991 14.2657329,2.91216717 16.673233,2.91216717 C19.0808278,2.91216717 21.039756,4.8736991 21.039756,7.28482186 C21.039756,7.65344461 21.3380781,7.95228693 21.7062706,7.95228693 C22.0744632,7.95228693 22.3728799,7.65344461 22.3728799,7.28482186 C22.3728799,4.03690269 25.011388,1.39463224 28.2546823,1.39463224 C31.4979766,1.39463224 34.1364847,4.03690269 34.1364847,7.28482186 C34.1364847,7.65344461 34.4349014,7.95228693 34.803094,7.95228693 C35.1712865,7.95228693 35.4696086,7.65344461 35.4696086,7.28482186 C35.4696086,6.85561527 35.6388882,6.45447255 35.9460151,6.15515619 C36.253142,5.85593463 36.6571218,5.6976013 37.0879895,5.70954741 C37.9311684,5.73268114 38.6169968,6.4603508 38.6169968,7.33146856 L38.6169968,8.8079506 C38.6169968,9.67688772 37.9110025,10.3838887 37.043208,10.3838887 L36.6384708,10.3838887 C36.2702783,10.3838887 35.9718615,10.682731 35.9718615,11.0513538 C35.9718615,11.4200714 36.2702783,11.7189137 36.6384708,11.7189137 L37.043208,11.7189137 C38.6461568,11.7189137 39.9501207,10.4130903 39.9501207,8.8079506 L39.9501207,7.33146856 C39.9501207,5.74405838 38.6826068,4.41775599 37.1246289,4.37499651" mask="url(#page-4-g)"/>
    </g>
    <path fill="#D9D1FF" d="M60.4384211 26.4608752L59.7078112 26.4608752C59.3396187 26.4608752 59.0412019 26.7597176 59.0412019 27.1283403 59.0412019 27.4970579 59.3396187 27.7959002 59.7078112 27.7959002L60.4384211 27.7959002C60.8066136 27.7959002 61.1049357 27.4970579 61.1049357 27.1283403 61.1049357 26.7597176 60.8066136 26.4608752 60.4384211 26.4608752M65.755589 26.4608752L63.0766545 26.4608752C62.7085567 26.4608752 62.4101399 26.7597176 62.4101399 27.1283403 62.4101399 27.4970579 62.7085567 27.7959002 63.0766545 27.7959002L65.755589 27.7959002C66.1237815 27.7959002 66.4221983 27.4970579 66.4221983 27.1283403 66.4221983 26.7597176 66.1237815 26.4608752 65.755589 26.4608752M102.163724 26.4608752L100.10728 26.4608752C99.7390877 26.4608752 99.4406709 26.7597176 99.4406709 27.1283403 99.4406709 27.4970579 99.7390877 27.7959002 100.10728 27.7959002L102.163724 27.7959002C102.531917 27.7959002 102.830239 27.4970579 102.830239 27.1283403 102.830239 26.7597176 102.531917 26.4608752 102.163724 26.4608752"/>
  </g>
</svg>
