<svg xmlns="http://www.w3.org/2000/svg" xmlns:xlink="http://www.w3.org/1999/xlink" width="159" height="161" viewBox="0 0 159 161">
  <defs>
    <linearGradient id="page-15-a" x1="-50.577%" x2="118.168%" y1="-106.069%" y2="162.663%">
      <stop offset="0%" stop-color="#3FACFE"/>
      <stop offset="100%" stop-color="#933DFA"/>
    </linearGradient>
    <linearGradient id="page-15-b" x1="19.985%" x2="66.305%" y1="-13.333%" y2="84.476%">
      <stop offset="0%" stop-color="#F3E9FF"/>
      <stop offset="100%" stop-color="#E4CEFD"/>
    </linearGradient>
    <polygon id="page-15-c" points="0 .006 0 1.954 1.959 1.954 1.959 .006 0 .006"/>
    <polygon id="page-15-e" points="28.276 .134 .018 .134 .018 10.566 28.276 10.566 28.276 .134"/>
    <polygon id="page-15-g" points="58.693 17.032 58.693 .023 .084 .023 .084 17.032 58.693 17.032"/>
  </defs>
  <g fill="none" fill-rule="evenodd">
    <path fill="url(#page-15-a)" d="M36.3992493,52.5221005 C50.7975406,52.5221005 62.4694813,64.1289003 62.4694813,78.4466967 C62.4694813,92.7644931 50.7975406,104.371293 36.3992493,104.371293 C22.0010971,104.371293 10.3291564,92.7644931 10.3291564,78.4466967 C10.3291564,64.1289003 22.0010971,52.5221005 36.3992493,52.5221005 Z"/>
    <path fill="url(#page-15-a)" d="M48.0642771,60.9158023 C48.0642771,60.9158023 45.5444788,55.5012783 47.5386469,55.5012783 C47.5386469,55.5012783 61.6020036,60.8938101 62.3469826,78.888603 C62.3469826,78.888603 63.5146635,92.1798169 48.0642771,102.017277 C48.0642771,102.017277 45.0155103,102.227932 46.7708567,99.5555257 C46.7709958,99.5555257 60.8218342,85.9294484 48.0642771,60.9158023"/>
    <path fill="#FFFBFB" d="M45.7926197,57.4462523 C45.7926197,57.4462523 41.1901905,50.7174482 40.2681468,55.9686209 C40.2681468,55.9686209 48.3587358,82.8868803 41.0373279,101.326498 C41.0373279,101.326498 39.5334606,103.958931 42.4404923,104.082171 C42.4404923,104.082171 49.7507728,98.7669576 50.4851808,92.1649894 C50.4850417,92.1651277 57.5023935,71.8090015 45.7926197,57.4462523"/>
    <path fill="#F9F4F4" d="M41.6969737,54.1810229 C41.6969737,54.1810229 56.7271619,78.4993537 42.3651737,104.569735 C42.3651737,104.569735 50.8517588,96.2342506 51.0149143,90.3916381 C51.0150534,90.3917764 59.4704818,71.6077515 41.6969737,54.1810229"/>
    <path fill="#FFFBFB" d="M26.8382865,57.2027882 C26.8382865,57.2027882 31.4407157,50.4742607 32.3627594,55.7251568 C32.3627594,55.7251568 24.2721704,82.6436929 31.5935783,101.083172 C31.5935783,101.083172 33.0975846,103.715744 30.1904139,103.838983 C30.1904139,103.838983 22.8801334,98.5234936 22.1457254,91.9216637 C22.1458645,91.9216637 15.1286517,71.5656757 26.8382865,57.2027882"/>
    <path fill="#26173A" d="M36.2770288,106.030437 C21.2269504,106.030437 8.98278344,93.8548808 8.98278344,78.8886583 C8.98278344,76.3482056 9.33580001,73.8326497 10.0320967,71.4117021 L10.2927559,70.508636 C10.4790006,69.8624229 11.1576326,69.4881394 11.8070551,69.6744513 C12.4568949,69.8599332 12.8323054,70.5342245 12.6456433,71.1802992 L12.3852623,72.0822588 C11.7521136,74.2839753 11.4308101,76.5746291 11.4308101,78.88852 C11.4308101,92.5121076 22.5768424,103.595796 36.2770288,103.595796 C49.9772152,103.595796 61.1232475,92.5121076 61.1232475,78.88852 C61.1232475,65.2647941 49.9773543,54.1809676 36.2770288,54.1809676 C28.507326,54.1809676 21.3280706,57.6962726 16.580568,63.8253379 C16.1684371,64.35827 15.3996733,64.4568894 14.8640284,64.0469204 C14.3285226,63.636813 14.2286542,62.8723396 14.6413414,62.3399607 C19.8559164,55.6076987 27.7416222,51.7466034 36.2770288,51.7466034 C51.3271072,51.7466034 63.5711351,63.9222975 63.5711351,78.88852 C63.5711351,93.8546042 51.3271072,106.030437 36.2770288,106.030437"/>
    <path fill="#322A63" d="M12.7438843,68.9339204 C12.5668196,68.9339204 12.3869731,68.8957452 12.216724,68.8145536 C11.6069428,68.5245046 11.3490655,67.7976533 11.6407423,67.1912753 C11.923239,66.6042615 12.2306333,66.0200141 12.5551359,65.4549926 C12.8902095,64.8710218 13.6376922,64.6676971 14.2248013,65.001039 C14.8121886,65.3342426 15.0163763,66.0778302 14.6811636,66.6616627 C14.3858704,67.1757838 14.1060164,67.7073328 13.8491127,68.2415098 C13.638805,68.6785888 13.2006638,68.9339204 12.7438843,68.9339204"/>
    <path fill="url(#page-15-a)" d="M42.9478597,128.304994 C42.9478597,128.842629 42.5093013,129.278602 41.9685099,129.278602 L29.3611727,129.278602 C28.8203813,129.278602 28.381962,128.842629 28.381962,128.304994 L27.1579487,118.445681 C27.1579487,117.908046 27.5962289,117.472212 28.1371594,117.472212 L43.6821286,117.472212 C44.2229199,117.472212 44.6613393,117.908046 44.6613393,118.445681 L42.9478597,128.304994 Z"/>
    <path fill="url(#page-15-a)" d="M41.2074936,117.897216 L40.2682024,126.643361 C40.2682024,126.643361 39.835625,128.65185 38.7341521,128.65185 L42.8963538,128.614643 L44.3646134,119.583704 C44.3644743,119.583704 44.7212464,117.244917 41.2074936,117.897216"/>
    <path fill="#26173A" d="M29.7074155,127.81808 L41.8704915,127.81808 L43.4994029,118.445501 L28.5439073,118.445501 L29.7074155,127.81808 Z M42.0910921,130.252306 L29.4834766,130.252306 C28.2986874,130.252306 27.3294914,129.317565 27.2819218,128.150868 L26.0562393,118.27717 L26.0562393,118.202203 C26.0562393,116.994011 27.0446301,116.011275 28.2594633,116.011275 L43.8045717,116.011275 C45.019544,116.011275 46.0079347,116.994011 46.0079347,118.202203 L46.0079347,118.306493 L44.2906997,128.186001 C44.2254653,129.336515 43.2637803,130.252306 42.0910921,130.252306 L42.0910921,130.252306 Z"/>
    <path fill="#26173A" d="M44.7827948 119.419634C44.5888999 119.419634 44.3925014 119.373713 44.2091776 119.27703 43.6124711 118.961531 43.3857505 118.224721 43.7030203 117.631068L57.949979 90.9764387C58.2671098 90.3829241 59.0080551 90.1574688 59.6051789 90.472968 60.2023027 90.7884671 60.4287451 91.5252772 60.1117535 92.1190685L45.8646556 118.773559C45.6447505 119.18505 45.2209359 119.419634 44.7827948 119.419634M27.5263628 119.114398C27.0880826 119.114398 26.664407 118.879952 26.4443628 118.468323L12.197265 91.8138324C11.8799952 91.2203178 12.1068549 90.483231 12.7037005 90.1677319 13.3006852 89.8522327 14.0419087 90.0775497 14.3590394 90.6712027L28.6061373 117.325832C28.9234071 117.919346 28.6965474 118.656295 28.0998409 118.971932 27.9166561 119.068477 27.7199794 119.114398 27.5263628 119.114398M36.0319758 117.818652C35.3561257 117.818652 34.8081015 117.273686 34.8081015 116.601608L34.8081015 105.403256C34.8081015 104.731039 35.3561257 104.186074 36.0319758 104.186074 36.7079649 104.186074 37.2561282 104.731039 37.2561282 105.403256L37.2561282 116.601608C37.2561282 117.273963 36.7079649 117.818652 36.0319758 117.818652M40.56988 117.81897C40.4243893 117.81897 40.2761168 117.793243 40.131878 117.738055 39.5008156 117.497662 39.1850758 116.793632 39.4270966 116.165954L44.6495999 102.614429C44.8916207 101.987027 45.599462 101.672634 46.2305244 101.913443 46.8618649 102.153974 47.1776047 102.858004 46.9355838 103.485544L41.7130806 117.036931C41.5262795 117.52159 41.0621281 117.81897 40.56988 117.81897M31.189626 117.575603C30.6972389 117.575603 30.2332265 117.278223 30.0462863 116.793702L24.8239222 103.242177C24.5819014 102.614636 24.8976412 101.910745 25.5288426 101.670075 26.1599049 101.429267 26.8678854 101.743245 27.1097671 102.3712L32.3322703 115.922587C32.574152 116.550265 32.2585513 117.254156 31.6272108 117.494688 31.4832501 117.549599 31.3351167 117.575603 31.189626 117.575603"/>
    <path fill="#26173A" d="M43.3169275,104.467672 C42.7771098,104.063235 42.6693132,103.299868 43.0762976,102.763063 C51.3082045,91.9001278 53.6935005,80.5380093 50.1661167,68.9922069 C47.5171015,60.3207524 42.3420287,54.7734448 42.2900082,54.7185333 C41.827665,54.2288942 41.8510325,53.4587498 42.3430024,52.9982954 C42.8351114,52.5377026 43.6088825,52.561078 44.0720603,53.0494723 C44.2982246,53.2880677 49.6453546,58.9992799 52.4779718,68.1852704 C54.1466636,73.5966132 54.5846657,79.0876261 53.7795987,84.5051931 C52.7767424,91.2554363 49.8332685,97.8910153 45.0311026,104.22797 C44.7906118,104.54582 44.423825,104.712906 44.0527265,104.712906 C43.79624,104.712906 43.5376672,104.632821 43.3169275,104.467672 Z"/>
    <path fill="#322A63" d="M39.5898348,105.543702 C39.3884289,105.543702 39.1841022,105.494323 38.9956319,105.389618 C38.4049064,105.062777 38.1926514,104.321541 38.5214659,103.73425 C48.2668374,86.3281308 38.5206313,54.2386454 38.420902,53.9165071 C38.2224172,53.2741669 38.5851702,52.5929599 39.2311154,52.3954444 C39.8770606,52.1972374 40.5618126,52.5582425 40.7607148,53.2005827 C40.7864469,53.2832958 43.3371238,61.5988628 44.6003611,72.0196016 C46.3106416,86.125221 44.9850908,97.1941094 40.6602901,104.918513 C40.4364904,105.318385 40.0194913,105.543702 39.5898348,105.543702"/>
    <path fill="#26173A" d="M28.6727625,104.712906 C28.3015249,104.712906 27.9348772,104.54582 27.6942473,104.228108 C22.8922205,97.8911536 19.9486076,91.2554363 18.9457512,84.5053314 C18.1408233,79.0876261 18.5788254,73.5967515 20.2475172,68.1854088 C23.0799953,58.9994182 28.4272644,53.2880677 28.6534287,53.0496107 C29.1171628,52.5603864 29.8916295,52.5375643 30.3837385,52.9989869 C30.8752911,53.4599947 30.8982413,54.2294474 30.4353417,54.7186716 C30.3835994,54.7735832 25.2085266,60.3208907 22.5590942,68.9923452 C19.0318494,80.5382859 21.4174236,91.9002662 29.6494695,102.76334 C30.0561758,103.300007 29.9483792,104.063235 29.4085615,104.467948 C29.1876827,104.632821 28.929249,104.712906 28.6727625,104.712906"/>
    <path fill="#26173A" d="M33.1355012,105.543702 C32.6887364,105.543702 32.2582453,105.299712 32.0426521,104.876465 C28.0451358,97.0310346 26.8205661,85.9387709 28.4027424,71.9075655 C29.5723706,61.5330243 31.9344382,53.3037666 31.958362,53.2217451 C32.1453023,52.5760853 32.8240733,52.2037382 33.4730785,52.3889436 C34.1226402,52.5748405 34.4976333,53.2495466 34.3106931,53.8953448 C34.2184748,54.2144401 25.1801101,86.0220372 34.2264031,103.77616 C34.5319892,104.375622 34.2908029,105.108145 33.6876982,105.412025 C33.5103553,105.501516 33.3214678,105.543702 33.1355012,105.543702"/>
    <path fill="#D9D1FF" d="M29.3719663 160.865833L18.1065927 160.865833C17.4151643 160.865833 16.8547609 160.308558 16.8547609 159.620988 16.8547609 158.933418 17.4151643 158.376143 18.1065927 158.376143L29.3719663 158.376143C30.0633947 158.376143 30.6237981 158.933418 30.6237981 159.620988 30.6237981 160.308558 30.0633947 160.865833 29.3719663 160.865833M55.796105 160.865833L41.0738675 160.865833C40.382439 160.865833 39.8220357 160.308558 39.8220357 159.620988 39.8220357 158.933418 40.382439 158.376143 41.0738675 158.376143L55.796105 158.376143C56.4875335 158.376143 57.0479369 158.933418 57.0479369 159.620988 57.0479369 160.308558 56.4875335 160.865833 55.796105 160.865833M84.4467658 160.865833L69.7245282 160.865833C69.0330998 160.865833 68.4726964 160.308558 68.4726964 159.620988 68.4726964 158.933418 69.0330998 158.376143 69.7245282 158.376143L84.4467658 158.376143C85.1381942 158.376143 85.6985976 158.933418 85.6985976 159.620988 85.6985976 160.308558 85.1381942 160.865833 84.4467658 160.865833M36.1313573 160.86582L35.1521466 160.86582C34.4607182 160.86582 33.9003148 160.308544 33.9003148 159.620974 33.9003148 158.933405 34.4607182 158.376129 35.1521466 158.376129L36.1313573 158.376129C36.8227857 158.376129 37.3831891 158.933405 37.3831891 159.620974 37.3831891 160.308544 36.8227857 160.86582 36.1313573 160.86582M62.8566729 160.86582L61.8774623 160.86582C61.1860338 160.86582 60.6256304 160.308544 60.6256304 159.620974 60.6256304 158.933405 61.1860338 158.376129 61.8774623 158.376129L62.8566729 158.376129C63.5481014 158.376129 64.1085047 158.933405 64.1085047 159.620974 64.1085047 160.308544 63.5481014 160.86582 62.8566729 160.86582"/>
    <path fill="url(#page-15-b)" d="M48.9734548,23.38525 C48.4326634,23.38525 47.9942441,23.8212225 47.9942441,24.359134 C47.9942441,24.8969072 48.4326634,25.3328797 48.9734548,25.3328797 L49.6808788,25.3328797 C50.2216702,25.3328797 50.6602286,24.8969072 50.6602286,24.359134 C50.6602286,23.8212225 50.2216702,23.38525 49.6808788,23.38525 L48.9734548,23.38525 Z"/>
    <path fill="url(#page-15-b)" d="M54.3640512 14.6318432C53.1684127 13.4655614 51.603762 12.8378827 49.9578814 12.8719085 48.0111438 12.9089772 46.2766613 13.8596241 45.1651738 15.3030915 43.6462845 11.2960726 39.7523921 8.43735438 35.1979498 8.43735438 30.7326657 8.43735438 26.903034 11.1858346 25.3235004 15.0697521 25.0407255 14.6419403 24.7114938 14.2398552 24.3352488 13.871796 22.934449 12.5019128 21.0782606 11.7667625 19.1141365 11.7982985 15.1739263 11.8637221 11.9682632 15.1524652 11.9682632 19.1294695L11.9682632 22.4440777C11.9682632 22.9630399 11.543614 23.3851808 11.0217393 23.3851808L8.95566042 23.3851808C8.41486907 23.3851808 7.97631066 23.8212917 7.97631066 24.3590649 7.97631066 24.8968381 8.41486907 25.3329489 8.95566042 25.3329489L11.0217393 25.3329489C12.6236667 25.3329489 13.9268236 24.0369265 13.9268236 22.4440777L13.9268236 19.1294695C13.9268236 16.2086473 16.2684446 13.793509 19.1468232 13.7456516 20.5876816 13.7197865 21.9386863 14.2597728 22.9618502 15.2604901 23.9855704 16.2616224 24.549312 17.5990013 24.549312 19.0265623 24.549312 19.5643355 24.9878704 20.000308 25.5286618 20.000308 26.0694531 20.000308 26.5078724 19.5643355 26.5078724 19.0265623 26.5078724 14.2615709 30.4062158 10.3849841 35.1979498 10.3849841 39.9896838 10.3849841 43.8880271 14.2615709 43.8880271 19.0265623 43.8880271 19.5643355 44.3264464 20.000308 44.8673769 20.000308 45.4081682 20.000308 45.8465875 19.5643355 45.8465875 19.0265623 45.8465875 16.7501551 47.7077833 14.8626929 49.9954363 14.8191233 51.110123 14.8030786 52.175571 15.2252195 52.9924608 16.0221972 53.8297972 16.8390924 54.3099442 17.9713484 54.3099442 19.1289162L54.3099442 21.4098879C54.3099442 22.4991276 53.4189182 23.3851808 52.3235653 23.3851808 51.782774 23.3851808 51.3443547 23.8212917 51.3443547 24.3590649 51.3443547 24.8968381 51.782774 25.3329489 52.3235653 25.3329489 54.4989708 25.3329489 56.2686437 23.5731525 56.2686437 21.4098879L56.2686437 19.1289162C56.2686437 17.4518329 55.5744335 15.8127865 54.3640512 14.6318432M6.11878698 23.38525L3.4124657 23.38525C2.87167436 23.38525 2.43325504 23.8212225 2.43325504 24.359134 2.43325504 24.8969072 2.87167436 25.3328797 3.4124657 25.3328797L6.11878698 25.3328797C6.65957833 25.3328797 7.09799765 24.8969072 7.09799765 24.359134 7.09799765 23.8212225 6.65957833 23.38525 6.11878698 23.38525"/>
    <g transform="translate(0 23.38)">
      <mask id="page-15-d" fill="#fff">
        <use xlink:href="#page-15-c"/>
      </mask>
      <path fill="#D9D1FF" d="M0.979321935,0.00589226804 C0.72074912,0.00589226804 0.470104573,0.109076117 0.287893498,0.290131959 C0.105682423,0.471464433 -2.78184847e-05,0.722646564 -2.78184847e-05,0.979637973 C-2.78184847e-05,1.2367677 0.105682423,1.48615172 0.287893498,1.66914399 C0.470104573,1.85033814 0.72074912,1.95352199 0.979321935,1.95352199 C1.23775566,1.95352199 1.49048659,1.85033814 1.67255857,1.66914399 C1.85476965,1.48615172 1.9585326,1.23483127 1.9585326,0.979637973 C1.9585326,0.722646564 1.85476965,0.473262543 1.67255857,0.290131959 C1.49048659,0.109076117 1.23775566,0.00589226804 0.979321935,0.00589226804" mask="url(#page-15-d)"/>
    </g>
    <path fill="#D9D1FF" d="M111.255857,8.62229691 L110.854158,8.62229691 C110.313227,8.62229691 109.874947,9.05826942 109.874947,9.59604261 C109.874947,10.1339541 110.313227,10.5699266 110.854158,10.5699266 L111.255857,10.5699266 C111.796787,10.5699266 112.235067,10.1339541 112.235067,9.59604261 C112.235067,9.05826942 111.796787,8.62229691 111.255857,8.62229691"/>
    <g transform="translate(89.297 .004)">
      <mask id="page-15-f" fill="#fff">
        <use xlink:href="#page-15-e"/>
      </mask>
      <path fill="url(#page-15-b)" d="M27.0678168,3.77031847 C26.3073985,3.02839064 25.3064894,2.6315616 24.2620444,2.65078754 C23.2679509,2.66973686 22.3631547,3.06601263 21.6781245,3.69548943 C20.6157366,1.58602981 18.4221099,0.133710223 15.8925751,0.133710223 C13.4336993,0.133710223 11.2913978,1.50539149 10.197714,3.51941297 C10.1413816,3.45827723 10.0836582,3.39797139 10.0237094,3.33932534 C9.14714896,2.48190352 7.99268184,2.02075747 6.7561502,2.04136658 C4.29018062,2.08244648 2.2839115,4.1379628 2.2839115,6.62364235 L2.2839115,8.50501864 C2.2839115,8.56739923 2.23286458,8.61816125 2.1701339,8.61816125 L0.997167493,8.61816125 C0.456376151,8.61816125 0.0179568319,9.05413376 0.0179568319,9.59190696 C0.0179568319,10.1298185 0.456376151,10.565791 0.997167493,10.565791 L2.1701339,10.565791 C3.31277816,10.565791 4.24247192,9.64128582 4.24247192,8.50501864 L4.24247192,6.62364235 C4.24247192,5.19400662 5.3846989,4.0120951 6.78883692,3.98885799 C6.80399799,3.98858136 6.81874179,3.98844304 6.83362468,3.98844304 C7.51823758,3.98844304 8.16181823,4.2501372 8.65044991,4.72788119 C9.14993081,5.21627552 9.42491653,5.8687128 9.42491653,6.56513462 C9.42491653,7.10304613 9.86333585,7.53901864 10.4041272,7.53901864 C10.9450576,7.53901864 11.3834769,7.10304613 11.3834769,6.56513462 C11.3834769,4.09273342 13.4062981,2.08133995 15.8925751,2.08133995 C18.3788522,2.08133995 20.4015342,4.09273342 20.4015342,6.56513462 C20.4015342,7.10304613 20.8399535,7.53901864 21.380884,7.53901864 C21.9218144,7.53901864 22.3600946,7.10304613 22.3600946,6.56513462 C22.3600946,5.50093015 23.2302568,4.61833479 24.2995994,4.59800232 C24.8168841,4.58790524 25.3142786,4.7879104 25.6962264,5.16053411 C26.0908316,5.54560627 26.317135,6.07867672 26.317135,6.62336572 L26.317135,7.9180049 C26.317135,8.30404527 26.0013952,8.61816125 25.6130491,8.61816125 C25.0721187,8.61816125 24.6336994,9.05413376 24.6336994,9.59190696 C24.6336994,10.1298185 25.0721187,10.565791 25.6130491,10.565791 C27.0811697,10.565791 28.2756954,9.37793187 28.2756954,7.9180049 L28.2756954,6.62336572 C28.2756954,5.55902294 27.8353288,4.51916211 27.0678168,3.77031847" mask="url(#page-15-f)"/>
    </g>
    <path fill="url(#page-15-b)" d="M85.3856814 8.62229691C84.8448901 8.62229691 84.4064707 9.05826942 84.4064707 9.59604261 84.4064707 10.1339541 84.8448901 10.5699266 85.3856814 10.5699266L86.9218181 10.5699266C87.4627486 10.5699266 87.9010288 10.1339541 87.9010288 9.59604261 87.9010288 9.05826942 87.4627486 8.62229691 86.9218181 8.62229691L85.3856814 8.62229691zM81.4593666 8.62229691C81.2007937 8.62229691 80.9480628 8.72548076 80.7659908 8.90667491 80.5839188 9.08773076 80.4782086 9.33891289 80.4782086 9.59604261 80.4782086 9.85317234 80.5839188 10.1044928 80.7659908 10.2836122 80.9480628 10.4666045 81.2007937 10.5699266 81.4593666 10.5699266 81.7159921 10.5699266 81.9684448 10.4666045 82.150795 10.2836122 82.332867 10.102418 82.436769 9.85317234 82.436769 9.59604261 82.436769 9.33891289 82.332867 9.08966718 82.150795 8.90667491 81.9684448 8.72548076 81.7159921 8.62229691 81.4593666 8.62229691"/>
    <g transform="translate(99.451 23.518)">
      <mask id="page-15-h" fill="#fff">
        <use xlink:href="#page-15-g"/>
      </mask>
      <path fill="url(#page-15-b)" d="M54.5416861,6.31837861 C53.4496715,6.28656589 52.4227521,6.66403067 51.6123997,7.37220936 C50.2492939,3.11539149 46.2367557,0.0227806701 41.5103951,0.0227806701 C37.1401112,0.0227806701 33.3797475,2.66683222 31.7602944,6.43055301 C30.3145678,3.92744562 27.6007355,2.23666899 24.4954972,2.23666899 C21.1130476,2.23666899 18.1947495,4.24239149 16.8747624,7.11978239 C15.8621695,5.83883651 14.3047517,4.99856589 12.5594199,4.96537002 C12.5235341,4.96467844 12.4879264,4.96426349 12.4523188,4.96426349 C10.9942129,4.96426349 9.61246875,5.53080644 8.55091537,6.56624115 C7.45055521,7.6397128 6.81949289,9.12993101 6.81949289,10.6547283 C6.81949289,13.0973915 4.82115204,15.0845796 2.36491893,15.0845796 L1.06315294,15.0845796 C0.522222504,15.0845796 0.0839422776,15.5205521 0.0839422776,16.0583253 C0.0839422776,16.5962369 0.522222504,17.0322094 1.06315294,17.0322094 L2.36491893,17.0322094 C5.90106561,17.0322094 8.7780533,14.1712781 8.7780533,10.6547283 C8.7780533,9.64958479 9.19533057,8.66615696 9.92264485,7.9565951 C10.6313208,7.26501435 11.5589281,6.89667844 12.5220041,6.91258479 C14.506992,6.95048342 16.1221333,8.58814665 16.1221333,10.5634396 C16.1221333,11.1012128 16.5604135,11.5371853 17.1013439,11.5371853 C17.6422744,11.5371853 18.0806937,11.1012128 18.0806937,10.5634396 C18.0806937,7.04592156 20.9585159,4.18429871 24.4954972,4.18429871 C28.0326175,4.18429871 30.9105788,7.04592156 30.9105788,10.5634396 C30.9105788,11.1012128 31.348859,11.5371853 31.8897895,11.5371853 C32.4307199,11.5371853 32.8691392,11.1012128 32.8691392,10.5634396 C32.8691392,5.82514321 36.745506,1.9704104 41.5103951,1.9704104 C46.2752843,1.9704104 50.151651,5.82514321 50.151651,10.5634396 C50.151651,11.1012128 50.5900704,11.5371853 51.1310008,11.5371853 C51.6719312,11.5371853 52.1102115,11.1012128 52.1102115,10.5634396 C52.1102115,9.93728239 52.3589087,9.35206675 52.8101245,8.91540266 C53.2613404,8.47887689 53.8548477,8.24788892 54.4878573,8.26531675 C55.7266145,8.29906589 56.7342,9.36064235 56.7342,10.6314912 L56.7342,12.7854886 C56.7342,14.0531561 55.6969878,15.0845796 54.4220666,15.0845796 L53.8274465,15.0845796 C53.2865161,15.0845796 52.8480968,15.5205521 52.8480968,16.0583253 C52.8480968,16.5962369 53.2865161,17.0322094 53.8274465,17.0322094 L54.4220666,17.0322094 C56.7770405,17.0322094 58.6927604,15.127181 58.6927604,12.7854886 L58.6927604,10.6314912 C58.6927604,8.31566383 56.830591,6.38075919 54.5416861,6.31837861" mask="url(#page-15-h)"/>
    </g>
    <path fill="url(#page-15-b)" d="M88.7931676 38.602461L87.7197914 38.602461C87.1788609 38.602461 86.7404416 39.0384335 86.7404416 39.5762067 86.7404416 40.1141182 87.1788609 40.5500907 87.7197914 40.5500907L88.7931676 40.5500907C89.334098 40.5500907 89.7723782 40.1141182 89.7723782 39.5762067 89.7723782 39.0384335 89.334098 38.602461 88.7931676 38.602461M92.669131 38.602461C92.1283396 38.602461 91.6899203 39.0384335 91.6899203 39.5762067 91.6899203 40.1141182 92.1283396 40.5500907 92.669131 40.5500907L96.6048902 40.5500907C97.1458206 40.5500907 97.5842399 40.1141182 97.5842399 39.5762067 97.5842399 39.0384335 97.1458206 38.602461 96.6048902 38.602461L92.669131 38.602461zM150.093939 38.602461L147.072712 38.602461C146.531782 38.602461 146.093362 39.0384335 146.093362 39.5762067 146.093362 40.1141182 146.531782 40.5500907 147.072712 40.5500907L150.093939 40.5500907C150.634869 40.5500907 151.073149 40.1141182 151.073149 39.5762067 151.073149 39.0384335 150.634869 38.602461 150.093939 38.602461"/>
    <polygon fill="url(#page-15-a)" points="104.215 98.825 95.912 107.375 95.912 119.563 104.116 127.721 116.582 127.721 124.786 119.563 124.786 107.375 116.484 98.825"/>
    <polygon fill="#26173A" points="109.073 159.525 111.577 159.525 111.577 127.319 109.073 127.319"/>
    <path fill="#26173A" d="M105.449179,99.7557521 C104.917151,99.7557521 104.400422,99.974015 104.030993,100.354384 L97.4019871,107.181808 C97.0452151,107.549314 96.8488166,108.032867 96.8488166,108.543669 L96.8488166,118.365222 C96.8488166,118.888887 97.0538388,119.381293 97.4261892,119.751427 L103.926535,126.215355 C104.298746,126.585628 104.793915,126.789506 105.320519,126.789506 L115.378153,126.789506 C115.904757,126.789506 116.399787,126.585628 116.772137,126.215355 L123.272343,119.751427 C123.644694,119.381293 123.849716,118.888887 123.849716,118.365222 L123.849716,108.543669 C123.849716,108.032867 123.653318,107.549314 123.296545,107.181808 L116.667679,100.354384 C116.298249,99.974015 115.781243,99.7557521 115.249214,99.7557521 L105.449179,99.7557521 Z M115.378153,128.651794 L105.320519,128.651794 C104.293739,128.651794 103.328298,128.254274 102.602236,127.532263 L96.1020293,121.068335 C95.3759669,120.346463 94.9760762,119.38641 94.9760762,118.365222 L94.9760762,108.543669 C94.9760762,107.547793 95.3592758,106.604891 96.0547379,105.888414 L102.683744,99.0609901 C103.403964,98.3190623 104.411967,97.8934635 105.449179,97.8934635 L115.249214,97.8934635 C116.286426,97.8934635 117.294429,98.318924 118.014789,99.0608518 L124.643795,105.888414 C125.339396,106.604891 125.722456,107.547793 125.722456,108.543669 L125.722456,118.365222 C125.722456,119.38641 125.322566,120.346463 124.596503,121.068335 L118.096297,127.532263 C117.370235,128.254274 116.404933,128.651794 115.378153,128.651794 L115.378153,128.651794 Z"/>
    <path fill="#FFF" d="M110.829399,124.256494 C110.829399,124.533403 110.603652,124.757752 110.325328,124.757752 C110.046865,124.757752 109.820979,124.533403 109.820979,124.256494 C109.820979,123.979585 110.046865,123.755098 110.325328,123.755098 C110.603652,123.755098 110.829399,123.979585 110.829399,124.256494"/>
    <path stroke="#322A63" stroke-width="2" d="M110.829399,124.256494 C110.829399,124.533403 110.603652,124.757752 110.325328,124.757752 C110.046865,124.757752 109.820979,124.533403 109.820979,124.256494 C109.820979,123.979585 110.046865,123.755098 110.325328,123.755098 C110.603652,123.755098 110.829399,123.979585 110.829399,124.256494 Z"/>
    <path fill="#FFF" d="M110.829399,102.38683 C110.829399,102.663739 110.603652,102.888087 110.325328,102.888087 C110.046865,102.888087 109.820979,102.663739 109.820979,102.38683 C109.820979,102.109921 110.046865,101.885434 110.325328,101.885434 C110.603652,101.885434 110.829399,102.109921 110.829399,102.38683"/>
    <path stroke="#322A63" stroke-width="2" d="M110.829399,102.38683 C110.829399,102.663739 110.603652,102.888087 110.325328,102.888087 C110.046865,102.888087 109.820979,102.663739 109.820979,102.38683 C109.820979,102.109921 110.046865,101.885434 110.325328,101.885434 C110.603652,101.885434 110.829399,102.109921 110.829399,102.38683 Z"/>
    <polygon fill="#FFF" points="105.815 115.58 103.242 115.58 103.242 111.428 103.974 111.428 103.974 114.939 105.815 114.939"/>
    <path fill="#FFF" d="M108.236772 115.007349C108.650016 115.007349 108.98356 114.865298 109.238099 114.58092 109.492638 114.29668 109.620046 113.938856 109.620046 113.507172 109.620046 113.071614 109.492638 112.712684 109.238099 112.430519 108.98356 112.148354 108.650016 112.007271 108.236772 112.007271 107.819495 112.007271 107.48456 112.148354 107.232108 112.430519 106.979794 112.712684 106.853498 113.071614 106.853498 113.507172 106.853498 113.943006 106.979794 114.301798 107.232108 114.583963 107.48456 114.866266 107.819495 115.007349 108.236772 115.007349M109.770266 115.047737C109.36968 115.452312 108.858655 115.654668 108.236772 115.654668 107.61489 115.654668 107.103864 115.452312 106.703278 115.047737 106.302831 114.643162 106.10226 114.129594 106.10226 113.507172 106.10226 112.884749 106.302831 112.371319 106.703278 111.966883 107.103864 111.56217 107.61489 111.359952 108.236772 111.359952 108.858655 111.359952 109.36968 111.56217 109.770266 111.966883 110.170713 112.371319 110.371285 112.884749 110.371285 113.507172 110.371285 114.129594 110.170713 114.643162 109.770266 115.047737M112.505449 115.654613C111.787732 115.654613 111.222322 115.43469 110.809217 114.994706L111.216062 114.434664C111.57506 114.816417 112.015148 115.007293 112.536745 115.007293 112.816182 115.007293 113.025933 114.951275 113.16586 114.839101 113.305509 114.727203 113.375611 114.59442 113.375611 114.440889 113.375611 114.283208 113.291878 114.157755 113.125106 114.064392 112.958334 113.97089 112.755955 113.897306 112.517968 113.843363 112.280259 113.789558 112.041159 113.725102 111.801363 113.650412 111.561429 113.575721 111.357937 113.4493 111.191165 113.270734 111.024115 113.092444 110.940659 112.862148 110.940659 112.579845 110.940659 112.231288 111.081699 111.941792 111.363083 111.711496 111.644884 111.4812 112.010976 111.366121 112.461774 111.366121 113.104242 111.366121 113.625839 111.559072 114.026564 111.944974L113.607061 112.486481C113.29007 112.171121 112.887397 112.01344 112.399183 112.01344 112.182198 112.01344 112.009863 112.060191 111.882732 112.153554 111.755324 112.246779 111.691759 112.372509 111.691759 112.530051 111.691759 112.633788 111.736685 112.720927 111.826261 112.791468 111.915976 112.862148 112.031979 112.919134 112.173714 112.962566 112.315588 113.006273 112.47318 113.048737 112.646489 113.090231 112.81952 113.131726 112.992551 113.182627 113.16586 113.242794 113.338891 113.302962 113.496483 113.376546 113.638357 113.463685 113.780092 113.550824 113.896095 113.671159 113.98581 113.82469 114.075385 113.978221 114.120451 114.160798 114.120451 114.372284 114.120451 114.745876 113.984697 115.052938 113.713606 115.293608 113.442098 115.534278 113.039564 115.654613 112.505449 115.654613"/>
    <polygon fill="#FFF" points="116.461 115.58 115.729 115.58 115.729 112.069 114.465 112.069 114.465 111.428 117.726 111.428 117.726 112.069 116.461 112.069"/>
    <path fill="#D9D1FF" d="M91.795255 160.865833L119.678139 160.865833C120.369568 160.865833 120.929971 160.308558 120.929971 159.620988 120.929971 158.933418 120.369568 158.376143 119.678139 158.376143L91.795255 158.376143C91.1038266 158.376143 90.5434232 158.933418 90.5434232 159.620988 90.5434232 160.308558 91.1038266 160.865833 91.795255 160.865833M124.809203 160.865833L134.403103 160.865833C135.094393 160.865833 135.654935 160.308558 135.654935 159.620988 135.654935 158.933418 135.094393 158.376143 134.403103 158.376143L124.809203 158.376143C124.117775 158.376143 123.557372 158.933418 123.557372 159.620988 123.557372 160.308558 124.117775 160.865833 124.809203 160.865833"/>
  </g>
</svg>
