<svg xmlns="http://www.w3.org/2000/svg" xmlns:xlink="http://www.w3.org/1999/xlink" width="110" height="91" viewBox="0 0 110 91">
  <defs>
    <polygon id="page-10-a" points="0 1.415 0 .062 1.362 .062 1.362 1.415"/>
    <polygon id="page-10-c" points=".012 .055 19.663 .055 19.663 7.304 .012 7.304 .012 .055"/>
    <polygon id="page-10-e" points="40.815 .074 40.815 11.893 .058 11.893 .058 .074"/>
    <linearGradient id="page-10-g" x1="22.492%" x2="68.119%" y1="8.634%" y2="87.303%">
      <stop offset="0%" stop-color="#3FACFE"/>
      <stop offset="100%" stop-color="#933DFA"/>
    </linearGradient>
    <polygon id="page-10-h" points=".066 29.122 46.463 29.122 46.463 .091 .066 .091"/>
  </defs>
  <g fill="none" fill-rule="evenodd">
    <path fill="#D9D1FF" d="M34.548133,16.2502441 L34.0561896,16.2502441 C33.6801227,16.2502441 33.3752455,16.5531927 33.3752455,16.9269767 C33.3752455,17.3006647 33.6801227,17.6036133 34.0561896,17.6036133 L34.548133,17.6036133 C34.9241998,17.6036133 35.2291738,17.3006647 35.2291738,16.9269767 C35.2291738,16.5531927 34.9241998,16.2502441 34.548133,16.2502441"/>
    <path fill="#D9D1FF" d="M37.8048157 10.1676754C36.9733675 9.35724934 35.8853079 8.92108787 34.7407608 8.94473171 33.3869976 8.97049003 32.1808367 9.6310757 31.4079071 10.6341125 30.35167 7.84971461 27.6438533 5.86324806 24.4766896 5.86324806 21.3715266 5.86324806 18.7083968 7.77311243 17.6099876 10.4719696 17.4133457 10.1746917 17.1843976 9.89529074 16.9227564 9.63953366 15.9486388 8.68762903 14.6578436 8.17678765 13.2919897 8.19870145 10.5519636 8.24416297 8.32274225 10.5294453 8.32274225 13.2929867L8.32274225 15.5962421C8.32274225 15.9568587 8.02744079 16.2502921 7.66452855 16.2502921L6.22777524 16.2502921C5.8517084 16.2502921 5.54673444 16.5532408 5.54673444 16.9269287 5.54673444 17.3006166 5.8517084 17.6036614 6.22777524 17.6036614L7.66452855 17.6036614C8.7785105 17.6036614 9.68472713 16.7030812 9.68472713 15.5962421L9.68472713 13.2929867C9.68472713 11.2633653 11.3130927 9.58513361 13.3147201 9.55187846 14.3166944 9.53390531 15.2561845 9.90913104 15.9676937 10.6045097 16.6795897 11.3001766 17.0716162 12.2294947 17.0716162 13.2214785 17.0716162 13.5951664 17.3765902 13.898115 17.752657 13.898115 18.1287239 13.898115 18.4336011 13.5951664 18.4336011 13.2214785 18.4336011 9.91038051 21.144513 7.2166173 24.4766896 7.2166173 27.8088662 7.2166173 30.5197781 9.91038051 30.5197781 13.2214785 30.5197781 13.5951664 30.8246553 13.898115 31.2008189 13.898115 31.5768857 13.898115 31.881763 13.5951664 31.881763 13.2214785 31.881763 11.6396483 33.1760403 10.3280883 34.7668766 10.2978126 35.5420308 10.2866635 36.2829444 10.5800008 36.8510104 11.1338048 37.433295 11.701449 37.7671897 12.4883274 37.7671897 13.2926022L37.7671897 14.8776041C37.7671897 15.6344952 37.1475693 16.2502921 36.3858598 16.2502921 36.009793 16.2502921 35.7049158 16.5532408 35.7049158 16.9269287 35.7049158 17.3006166 36.009793 17.6036614 36.3858598 17.6036614 37.898639 17.6036614 39.1292713 16.3808138 39.1292713 14.8776041L39.1292713 13.2926022C39.1292713 12.1272303 38.6465168 10.9882895 37.8048157 10.1676754M4.25501061 16.2502441L2.37303207 16.2502441C1.99696523 16.2502441 1.692088 16.5531927 1.692088 16.9269767 1.692088 17.3006647 1.99696523 17.6036133 2.37303207 17.6036133L4.25501061 17.6036133C4.63107745 17.6036133 4.93595468 17.3006647 4.93595468 16.9269767 4.93595468 16.5531927 4.63107745 16.2502441 4.25501061 16.2502441"/>
    <g transform="translate(0 16.188)">
      <mask id="page-10-b" fill="#fff">
        <use xlink:href="#page-10-a"/>
      </mask>
      <path fill="#D9D1FF" d="M0.681021457,0.0619737581 C0.501209661,0.0619737581 0.326911192,0.133674167 0.200201428,0.259486278 C0.0734916633,0.385490615 -1.93450022e-05,0.560032093 -1.93450022e-05,0.738610322 C-1.93450022e-05,0.917284665 0.0734916633,1.09057667 0.200201428,1.21773437 C0.326911192,1.34364259 0.501209661,1.415343 0.681021457,1.415343 C0.860736527,1.415343 1.03648587,1.34364259 1.16309891,1.21773437 C1.28980867,1.09057667 1.36196553,0.915939081 1.36196553,0.738610322 C1.36196553,0.560032093 1.28980867,0.386740086 1.16309891,0.259486278 C1.03648587,0.133674167 0.860736527,0.0619737581 0.681021457,0.0619737581" mask="url(#page-10-b)"/>
    </g>
    <path fill="#D9D1FF" d="M77.3674344,5.99176095 L77.0880926,5.99176095 C76.711929,5.99176095 76.4071485,6.29470959 76.4071485,6.66839751 C76.4071485,7.04218155 76.711929,7.34513019 77.0880926,7.34513019 L77.3674344,7.34513019 C77.743598,7.34513019 78.0483785,7.04218155 78.0483785,6.66839751 C78.0483785,6.29470959 77.743598,5.99176095 77.3674344,5.99176095"/>
    <g transform="translate(62.097 .041)">
      <mask id="page-10-d" fill="#fff">
        <use xlink:href="#page-10-c"/>
      </mask>
      <path fill="#D9D1FF" d="M18.822987,2.58167606 C18.2941913,2.06612513 17.5981582,1.7903765 16.87185,1.80373623 C16.1805564,1.81690373 15.5513602,2.0922679 15.0749895,2.52967884 C14.3362039,1.06385722 12.8107537,0.0546691588 11.0517127,0.0546691588 C9.34180795,0.0546691588 7.85204933,1.00782325 7.09150057,2.4073268 C7.05232694,2.36484479 7.01218606,2.32293946 6.97049758,2.28218749 C6.36093656,1.68638208 5.55811897,1.36594084 4.69823363,1.3802617 C2.98339591,1.40880731 1.58823435,2.8371448 1.58823435,4.56439419 L1.58823435,5.87172524 C1.58823435,5.91507227 1.55273627,5.95034579 1.50911329,5.95034579 L0.693431275,5.95034579 C0.317364433,5.95034579 0.0124871989,6.25329444 0.0124871989,6.62698236 C0.0124871989,7.00076639 0.317364433,7.30371503 0.693431275,7.30371503 L1.50911329,7.30371503 C2.30370926,7.30371503 2.95021923,6.66129475 2.95021923,5.87172524 L2.95021923,4.56439419 C2.95021923,3.57096869 3.74452502,2.74968184 4.720964,2.73353483 C4.73150703,2.7333426 4.74175988,2.73324649 4.75210946,2.73324649 C5.22818996,2.73324649 5.67573659,2.91509257 6.01553155,3.24706738 C6.36287106,3.58644291 6.55409641,4.03990474 6.55409641,4.52373833 C6.55409641,4.89752237 6.85897364,5.20047101 7.23504049,5.20047101 C7.61120405,5.20047101 7.91608129,4.89752237 7.91608129,4.52373833 C7.91608129,2.8057158 9.32275312,1.4080384 11.0517127,1.4080384 C12.7806723,1.4080384 14.1872474,2.8057158 14.1872474,4.52373833 C14.1872474,4.89752237 14.4921246,5.20047101 14.8682882,5.20047101 C15.2444517,5.20047101 15.5492322,4.89752237 15.5492322,4.52373833 C15.5492322,3.78424377 16.1543439,3.17104188 16.8979658,3.15681714 C17.2576861,3.14980088 17.6035748,3.28878049 17.8691816,3.54780542 C18.1435905,3.81528831 18.3009621,4.18570839 18.3009621,4.56420197 L18.3009621,5.46382104 C18.3009621,5.73207283 18.0813963,5.95034579 17.8113401,5.95034579 C17.4351765,5.95034579 17.1302993,6.25329444 17.1302993,6.62698236 C17.1302993,7.00076639 17.4351765,7.30371503 17.8113401,7.30371503 C18.8322726,7.30371503 19.662947,6.47829532 19.662947,5.46382104 L19.662947,4.56420197 C19.662947,3.82461129 19.3567156,3.10203264 18.822987,2.58167606" mask="url(#page-10-d)"/>
    </g>
    <path fill="#D9D1FF" d="M60.4455195 5.99176095L59.3772885 5.99176095C59.0012217 5.99176095 58.6963444 6.29470959 58.6963444 6.66839751 58.6963444 7.04218155 59.0012217 7.34513019 59.3772885 7.34513019L60.4455195 7.34513019C60.8216831 7.34513019 61.1264636 7.04218155 61.1264636 6.66839751 61.1264636 6.29470959 60.8216831 5.99176095 60.4455195 5.99176095M56.6469252 5.99176095C56.4671134 5.99176095 56.2913641 6.06346136 56.1647511 6.18936958 56.038138 6.31518169 55.964627 6.48972317 55.964627 6.66839751 55.964627 6.84707185 56.038138 7.02170945 56.1647511 7.14617597 56.2913641 7.27342978 56.4671134 7.34513019 56.6469252 7.34513019 56.8253829 7.34513019 57.0009388 7.27342978 57.1277453 7.14617597 57.2543583 7.02026775 57.3266119 6.84707185 57.3266119 6.66839751 57.3266119 6.48972317 57.2543583 6.31652728 57.1277453 6.18936958 57.0009388 6.06346136 56.8253829 5.99176095 56.6469252 5.99176095"/>
    <g transform="translate(69.158 16.285)">
      <mask id="page-10-f" fill="#fff">
        <use xlink:href="#page-10-e"/>
      </mask>
      <path fill="#D9D1FF" d="M37.9283433,4.44838562 C37.1689552,4.4262796 36.4548344,4.68857238 35.8913145,5.1806717 C34.9434094,2.22269345 32.1530863,0.0736995622 28.8663704,0.0736995622 C25.8272706,0.0736995622 23.2123099,1.91099851 22.0861406,4.52633339 C21.0807809,2.78697374 19.1935792,1.61208661 17.0341933,1.61208661 C14.6820345,1.61208661 12.652647,3.00582338 11.7347267,5.0052652 C11.0305686,4.11516134 9.94753866,3.53127396 8.73383322,3.50820681 C8.70887817,3.50772624 8.68411656,3.5074379 8.65935496,3.5074379 C7.64538667,3.5074379 6.68452041,3.90111736 5.94631513,4.62062038 C5.18112357,5.36655453 4.7422822,6.40207759 4.7422822,7.46162894 C4.7422822,9.15898714 3.35263396,10.5398447 1.644567,10.5398447 L0.739317621,10.5398447 C0.363154053,10.5398447 0.0583735441,10.8427934 0.0583735441,11.2164813 C0.0583735441,11.5902653 0.363154053,11.893214 0.739317621,11.893214 L1.644567,11.893214 C4.10360695,11.893214 6.10426707,9.90520962 6.10426707,7.46162894 C6.10426707,6.76317469 6.39444211,6.0798102 6.90021719,5.58674975 C7.39303112,5.10618401 8.03809022,4.8502347 8.70781419,4.86128771 C10.0881768,4.88762271 11.2113476,6.02560239 11.2113476,7.39819426 C11.2113476,7.77188218 11.5161282,8.07483082 11.8922917,8.07483082 C12.2684553,8.07483082 12.5733325,7.77188218 12.5733325,7.39819426 C12.5733325,4.95394078 14.574573,2.96545586 17.0341933,2.96545586 C19.4939103,2.96545586 21.4952475,4.95394078 21.4952475,7.39819426 C21.4952475,7.77188218 21.800028,8.07483082 22.1761916,8.07483082 C22.5523552,8.07483082 22.8572324,7.77188218 22.8572324,7.39819426 C22.8572324,4.10564614 25.5528617,1.4270688 28.8663704,1.4270688 C32.1798791,1.4270688 34.8755085,4.10564614 34.8755085,7.39819426 C34.8755085,7.77188218 35.1803857,8.07483082 35.5565493,8.07483082 C35.9327128,8.07483082 36.2374933,7.77188218 36.2374933,7.39819426 C36.2374933,6.96309004 36.4104377,6.55643531 36.7242136,6.2530061 C37.0379895,5.949673 37.4507151,5.78916404 37.8909107,5.8012743 C38.7523436,5.82472591 39.4530196,6.56239432 39.4530196,7.44548193 L39.4530196,8.94225199 C39.4530196,9.82312899 38.7317412,10.5398447 37.8451597,10.5398447 L37.4316603,10.5398447 C37.0554968,10.5398447 36.7506195,10.8427934 36.7506195,11.2164813 C36.7506195,11.5902653 37.0554968,11.893214 37.4316603,11.893214 L37.8451597,11.893214 C39.4828109,11.893214 40.8150045,10.5694476 40.8150045,8.94225199 L40.8150045,7.44548193 C40.8150045,5.83625949 39.52005,4.49173265 37.9283433,4.44838562" mask="url(#page-10-f)"/>
    </g>
    <path fill="#D9D1FF" d="M61.7468578 26.8243916L61.0004309 26.8243916C60.6242674 26.8243916 60.3193901 27.1273402 60.3193901 27.5010281 60.3193901 27.8748122 60.6242674 28.1777608 61.0004309 28.1777608L61.7468578 28.1777608C62.1230214 28.1777608 62.4278019 27.8748122 62.4278019 27.5010281 62.4278019 27.1273402 62.1230214 26.8243916 61.7468578 26.8243916M67.1791376 26.8243916L64.4422067 26.8243916C64.0661398 26.8243916 63.7612626 27.1273402 63.7612626 27.5010281 63.7612626 27.8748122 64.0661398 28.1777608 64.4422067 28.1777608L67.1791376 28.1777608C67.5553011 28.1777608 67.8601784 27.8748122 67.8601784 27.5010281 67.8601784 27.1273402 67.5553011 26.8243916 67.1791376 26.8243916M104.375476 26.8243916L102.274512 26.8243916C101.898348 26.8243916 101.593471 27.1273402 101.593471 27.5010281 101.593471 27.8748122 101.898348 28.1777608 102.274512 28.1777608L104.375476 28.1777608C104.751639 28.1777608 105.05642 27.8748122 105.05642 27.5010281 105.05642 27.1273402 104.751639 26.8243916 104.375476 26.8243916"/>
    <path fill="#FFF" d="M57.9426632,52.7956252 C57.9426632,52.7956252 27.7987004,52.4991161 30.0801532,74.1695555 C30.0801532,74.1695555 29.3724163,56.6954162 57.9426632,62.0783292 L57.9426632,68.5650055 L74.6939842,57.5241037 L57.9428566,46.307411 L57.9426632,52.7956252 Z"/>
    <path fill="#26173A" d="M57.7626676,53.6843931 C56.7916452,53.6843931 53.2404831,53.7444638 49.038652,54.5429718 C46.1636945,55.089279 43.5510552,55.8694294 41.2735681,56.8617015 C38.4516159,58.0911809 36.1418226,59.6505206 34.4084137,61.4963737 C32.5221793,63.5049462 31.2976406,65.8775954 30.7435998,68.5870251 C31.4136139,67.2904587 32.4189737,65.8793255 33.9249821,64.6214927 C36.1362126,62.7744863 39.0527618,61.5533688 42.5935743,60.9919719 C46.8385449,60.3188915 52.0342255,60.5913723 58.0363994,61.8017251 L58.5176063,61.8987033 L58.4417739,67.7750612 L73.6604871,58.0213067 L58.7008035,47.7245129 L58.6235202,53.6994828 L58.0248891,53.6862192 C58.0190856,53.6861231 57.9283575,53.6843931 57.7626676,53.6843931 Z M29.311586,74.1680273 C28.811421,68.7459001 30.2354066,64.2111857 33.5437888,60.689696 C35.3909464,58.7237016 37.8365415,57.0704593 40.8127701,55.7757191 C43.1748916,54.7482695 45.8764212,53.9423608 48.8423002,53.3804833 C52.8101536,52.6287824 56.1371071,52.5176756 57.4528574,52.5062381 L57.5435854,45.4944956 L75.7939507,58.0561957 L57.2276815,69.9554841 L57.3191834,62.8612765 C51.6697657,61.7620304 46.7862166,61.5235737 42.7986313,62.1528265 C39.4743862,62.6773159 36.7513836,63.8065493 34.7054562,65.5090015 C32.9142057,66.9995242 31.6614234,68.8926649 30.9819302,71.1357535 C30.4708352,72.823116 30.4945329,74.0866194 30.4949198,74.0992102 L29.311586,74.1680273 Z"/>
    <path fill="url(#page-10-g)" d="M46.7082079,84.3298013 C46.7082079,84.3298013 76.8521706,84.6263104 74.5707178,62.955871 C74.5707178,62.955871 75.2784547,80.4300103 46.7082079,75.0470973 L46.7082079,68.560421 L29.9568869,79.6013228 L46.7080145,90.8180155 L46.7082079,84.3298013 Z"/>
    <g transform="translate(28.824 62.803)">
      <mask id="page-10-i" fill="#fff">
        <use xlink:href="#page-10-h"/>
      </mask>
      <path d="M2.19964282,16.801847 L17.2910659,26.9071834 L17.2911626,20.9316368 L17.8898905,20.9373075 C17.9309019,20.9379803 21.9581444,20.9635464 26.8642304,19.9661802 C29.7320303,19.3831579 32.33432,18.5697523 34.5989426,17.5485501 C37.4047417,16.2832205 39.694126,14.6946624 41.4036439,12.8267994 C43.2638593,10.7943908 44.4575426,8.40636352 44.9766658,5.69001372 C44.3232883,6.99513416 43.336403,8.41885823 41.8467411,9.69581752 C39.6594985,11.5707928 36.7590056,12.82901 33.2256409,13.435484 C28.9898593,14.16258 23.7910834,13.9564173 17.773627,12.8226666 L17.2911626,12.7317435 L17.2911626,6.85500119 L2.19964282,16.801847 Z M18.4768178,29.1223032 L0.0659858024,16.794158 L18.477108,4.6592002 L18.477108,11.7540806 C24.1490626,12.7827796 29.0408333,12.9578978 33.0237758,12.2742449 C36.3422175,11.7046784 39.0499375,10.5369037 41.0720705,8.80359916 C45.3059177,5.17417445 45.1562841,0.225789008 45.1541562,0.176290737 L46.336426,0.0912306004 C46.9066199,5.50653372 45.5412497,10.0590291 42.2786183,13.622328 C40.4569962,15.611774 38.032874,17.2961569 35.0735723,18.6285735 C32.7249923,19.6861065 30.0341025,20.5263276 27.0756713,21.1259776 C23.1177806,21.928234 19.7926649,22.0817267 18.477108,22.1098879 L18.4768178,29.1223032 Z" mask="url(#page-10-i)"/>
    </g>
    <path fill="#D9D1FF" d="M71.8229634 84.7127449C71.6111356 84.6948679 71.4075295 84.5907773 71.269793 84.4085468 71.0129881 84.0690752 71.0817596 83.5870677 71.4233924 83.3319834 76.3258995 79.6706492 78.7289357 74.3199341 78.7526333 74.266303 78.9245137 73.8774292 79.380959 73.7007732 79.7723084 73.8714701 80.1635611 74.0422632 80.3414384 74.4959173 80.1696547 74.8846949 80.066159 75.1186344 77.5764572 80.6605185 72.3532099 84.5612706 72.1949678 84.6794898 72.0058704 84.7282191 71.8229634 84.7127449M27.166883 60.458294C27.0272121 60.458294 26.8858001 60.4207138 26.7584133 60.341901 26.3956945 60.1173807 26.2848476 59.6431584 26.510894 59.2827341 26.6468893 59.0658067 29.9077796 53.9342296 35.6382529 50.8149735 36.013159 50.6108292 36.4833393 50.7474059 36.6885898 51.1198444 36.893937 51.4922828 36.7565875 51.959585 36.381778 52.1636332 31.0032871 55.0913358 27.8555651 60.0461608 27.8244196 60.0958513 27.6776878 60.3297907 27.4252355 60.458294 27.166883 60.458294M38.2739127 51.0702308C37.9695191 51.0702308 37.6808917 50.8905953 37.5579542 50.5936057 37.3954561 50.2007912 37.5841666 49.7514623 37.979385 49.5899922 38.8125743 49.2495594 39.6605625 48.9655451 40.4998454 48.7458304 40.912571 48.6374148 41.3363233 48.8827916 41.4452356 49.2934831 41.554148 49.7040785 41.3074025 50.1246696 40.8940965 50.232893 40.1207801 50.4354034 39.3380813 50.6976001 38.5679567 51.0122746 38.4716186 51.0515848 38.3719919 51.0702308 38.2739127 51.0702308"/>
  </g>
</svg>
