<svg xmlns="http://www.w3.org/2000/svg" xmlns:xlink="http://www.w3.org/1999/xlink" width="172" height="123" viewBox="0 0 172 123">
  <defs>
    <linearGradient id="page-1-a" x1="-50.577%" x2="118.168%" y1="-106.069%" y2="162.663%">
      <stop offset="0%" stop-color="#3FACFE"/>
      <stop offset="100%" stop-color="#933DFA"/>
    </linearGradient>
    <linearGradient id="page-1-b" x1="-17.776%" y1="-26.572%" y2="100%">
      <stop offset="0%" stop-color="#62DFFF"/>
      <stop offset="100%" stop-color="#33BCFF"/>
    </linearGradient>
    <linearGradient id="page-1-c" x1="0%" y1="-56.823%" y2="100%">
      <stop offset="0%" stop-color="#F3E9FF"/>
      <stop offset="100%" stop-color="#E4CEFD"/>
    </linearGradient>
    <linearGradient id="page-1-d" x1="23.691%" y1="-13.111%" y2="108.346%">
      <stop offset="0%" stop-color="#F3E9FF"/>
      <stop offset="100%" stop-color="#E4CEFD"/>
    </linearGradient>
    <linearGradient id="page-1-e" x1="0%" x2="144.546%" y1="-60.708%" y2="177.694%">
      <stop offset="0%" stop-color="#F3E9FF"/>
      <stop offset="100%" stop-color="#E4CEFD"/>
    </linearGradient>
    <linearGradient id="page-1-f" x1="-39.435%" y1="-36.157%" y2="100%">
      <stop offset="0%" stop-color="#F3E9FF"/>
      <stop offset="100%" stop-color="#E4CEFD"/>
    </linearGradient>
    <linearGradient id="page-1-g" x1="0%" x2="117.642%" y1="-21.145%" y2="132.573%">
      <stop offset="0%" stop-color="#F3E9FF"/>
      <stop offset="100%" stop-color="#E4CEFD"/>
    </linearGradient>
    <polygon id="page-1-h" points=".045 .097 .045 10.138 27.07 10.138 27.07 .097"/>
    <linearGradient id="page-1-i" x1="23.47%" y1="-8.467%" y2="125.194%">
      <stop offset="0%" stop-color="#F3E9FF"/>
      <stop offset="100%" stop-color="#E4CEFD"/>
    </linearGradient>
    <linearGradient id="page-1-k" x1="11.689%" x2="116.633%" y1="-36.575%" y2="128.402%">
      <stop offset="0%" stop-color="#F3E9FF"/>
      <stop offset="100%" stop-color="#E4CEFD"/>
    </linearGradient>
    <linearGradient id="page-1-l" x1="0%" y1="-40.537%" y2="125.954%">
      <stop offset="0%" stop-color="#F3E9FF"/>
      <stop offset="100%" stop-color="#E4CEFD"/>
    </linearGradient>
    <linearGradient id="page-1-m" x1="20.779%" x2="65.069%" y1="0%" y2="100%">
      <stop offset="0%" stop-color="#F3E9FF"/>
      <stop offset="100%" stop-color="#E4CEFD"/>
    </linearGradient>
    <linearGradient id="page-1-n" x1="0%" y1="-63.853%" y2="100%">
      <stop offset="0%" stop-color="#F3E9FF"/>
      <stop offset="100%" stop-color="#E4CEFD"/>
    </linearGradient>
    <linearGradient id="page-1-o" x1="12.904%" y1="-81.482%" y2="142.615%">
      <stop offset="0%" stop-color="#F3E9FF"/>
      <stop offset="100%" stop-color="#E4CEFD"/>
    </linearGradient>
    <linearGradient id="page-1-p" x1="0%" x2="80.712%" y1="-62.853%" y2="100%">
      <stop offset="0%" stop-color="#F3E9FF"/>
      <stop offset="100%" stop-color="#E4CEFD"/>
    </linearGradient>
    <linearGradient id="page-1-q" x1="10.134%" x2="76.428%" y1="-175.13%" y2="224.37%">
      <stop offset="0%" stop-color="#F3E9FF"/>
      <stop offset="100%" stop-color="#E4CEFD"/>
    </linearGradient>
    <polygon id="page-1-r" points="0 .104 0 2.5 11.57 2.5 11.57 .104 0 .104"/>
    <linearGradient id="page-1-s" x1="0%" x2="86.695%" y1="-108.423%" y2="151.789%">
      <stop offset="0%" stop-color="#F3E9FF"/>
      <stop offset="100%" stop-color="#E4CEFD"/>
    </linearGradient>
    <linearGradient id="page-1-u" x1="11.229%" x2="78.729%" y1="-101.703%" y2="127.751%">
      <stop offset="0%" stop-color="#F3E9FF"/>
      <stop offset="100%" stop-color="#E4CEFD"/>
    </linearGradient>
    <linearGradient id="page-1-v" x1="0%" x2="83.455%" y1="-94.629%" y2="136.141%">
      <stop offset="0%" stop-color="#F3E9FF"/>
      <stop offset="100%" stop-color="#E4CEFD"/>
    </linearGradient>
  </defs>
  <g fill="none" fill-rule="evenodd">
    <polygon fill="#FFF" points="55.606 99.076 112.316 99.076 112.316 60.583 55.606 60.583"/>
    <g transform="translate(0 .036)">
      <path fill="url(#page-1-a)" d="M117.875484,76.8948221 L117.875484,120.728914 L50.0478896,120.728914 L50.0478896,76.8934908 L50.4748965,76.6097952 L55.6056312,73.2176963 L55.6056312,60.4392816 L74.9326846,60.4392816 L83.9610218,54.4698265 L92.989359,60.4392816 L102.382182,60.4392816 C102.3742,60.5778678 102.37154,60.7177852 102.37154,60.8590339 C102.37154,61.0014807 102.3742,61.1413982 102.382182,61.2801174 L56.4596452,61.2801174 L56.4596452,80.5692853 L81.7860798,97.3151777 L83.9610218,95.7538537 L86.137294,97.3151777 L100.463976,87.8399325 L111.461068,80.5692853 L111.461068,70.2035475 C111.602074,70.2114021 111.744409,70.2139315 111.888075,70.2139315 C112.033071,70.2139315 112.175407,70.2114021 112.316412,70.2035475 L112.316412,73.2176963 L117.448477,76.6111265 L117.875484,76.8948221 Z"/>
      <path fill="#26173A" d="M98.2360302 122.477669L52.9989067 122.477669C50.9470119 122.477669 49.277694 120.807047 49.277694 118.753416L49.277694 76.3710836 54.9374651 72.5616287 56.273691 74.550027 51.6721256 77.6472477 51.6721256 118.753416C51.6721256 119.485619 52.2672749 120.081367 52.9989067 120.081367L115.355624 120.081367C116.084862 120.081367 116.678282 119.487616 116.678282 118.757676L116.678282 77.9374665 110.793434 73.9766452 112.128729 71.9874481 119.072713 76.6613024 119.072713 118.757676C119.072713 120.808911 117.405258 122.477669 115.355624 122.477669L98.2360302 122.477669zM92.3211663 61.5407153L84.6309172 56.36417C84.2239969 56.0903259 83.6980201 56.0903259 83.2909667 56.36417L75.6008507 61.5407153 74.2644919 59.552317 81.9546079 54.3759048C83.1733735 53.5554375 84.7485104 53.5554375 85.9672761 54.3759048L93.6575251 59.552317 92.3211663 61.5407153z"/>
      <polygon fill="#26173A" points="116.315 121.527 83.966 97.89 52.933 120.872 51.508 118.945 83.957 94.916 117.727 119.592"/>
      <path fill="#26173A" d="M81.8142942,99.5521125 L49.8065974,78.0038973 L51.1430892,76.015499 L81.757892,96.6260944 L82.0101055,96.4418454 C83.1773909,95.5891611 84.7454775,95.5888949 85.9124968,96.4415791 L86.174421,96.6328839 L117.219822,76.2974639 L118.53104,78.3023701 L86.1001937,99.5454561 L84.5008464,98.3771256 C84.1781302,98.1413561 83.7447381,98.1414893 83.422022,98.3772588 L81.8142942,99.5521125 Z"/>
      <polygon fill="#26173A" points="113.144 81.041 110.75 81.041 110.75 61.745 57.289 61.745 57.289 80.464 54.895 80.464 54.895 59.349 113.144 59.349"/>
      <path fill="url(#page-1-b)" d="M122.753686,60.5470753 C122.753686,65.8630055 118.447567,70.1724888 113.135787,70.1724888 C107.824006,70.1724888 103.51802,65.8630055 103.51802,60.5470753 C103.51802,55.2311451 107.824006,50.9216618 113.135787,50.9216618 C118.447567,50.9216618 122.753686,55.2311451 122.753686,60.5470753"/>
      <polygon fill="#FFF" points="113.789 64.297 112.382 64.297 112.382 58.096 111.07 59.457 110.252 58.602 112.562 56.265 113.789 56.265"/>
      <path fill="#26173A" d="M113.135853 50.9831802C107.866375 50.9831802 103.579411 55.273493 103.579411 60.5470886 103.579411 65.8206841 107.866375 70.110997 113.135853 70.110997 118.405332 70.110997 122.692296 65.8206841 122.692296 60.5470886 122.692296 55.273493 118.405332 50.9831802 113.135853 50.9831802M113.135853 72.5072992C106.546112 72.5072992 101.184979 67.1419786 101.184979 60.5470886 101.184979 53.9521986 106.546112 48.586878 113.135853 48.586878 119.725595 48.586878 125.086727 53.9521986 125.086727 60.5470886 125.086727 67.1419786 119.725595 72.5072992 113.135853 72.5072992M71.7636145 74.4576895C71.1023524 74.4576895 70.5663988 73.9213172 70.5663988 73.2595384 70.5663988 72.5977596 71.1023524 72.0613873 71.7636145 72.0613873L96.2687592 72.0613873C96.9300213 72.0613873 97.4659749 72.5977596 97.4659749 73.2595384 97.4659749 73.9213172 96.9300213 74.4576895 96.2687592 74.4576895L71.7636145 74.4576895zM96.2687592 81.957969L71.7636145 81.957969C71.1023524 81.957969 70.5663988 81.4215967 70.5663988 80.7598179 70.5663988 80.0980391 71.1023524 79.5616668 71.7636145 79.5616668L96.2687592 79.5616668C96.9300213 79.5616668 97.4659749 80.0980391 97.4659749 80.7598179 97.4659749 81.4215967 96.9300213 81.957969 96.2687592 81.957969"/>
      <path fill="url(#page-1-c)" d="M68.1600483,22.4726686 L67.4834883,22.4726686 C66.9662911,22.4726686 66.5469995,22.8922878 66.5469995,23.4100222 C66.5469995,23.9276235 66.9662911,24.3472426 67.4834883,24.3472426 L68.1600483,24.3472426 C68.6772455,24.3472426 69.0966701,23.9276235 69.0966701,23.4100222 C69.0966701,22.8922878 68.6772455,22.4726686 68.1600483,22.4726686"/>
      <path fill="url(#page-1-d)" d="M68.4249655,12.3536835 C66.5631619,12.3893617 64.904353,13.3043498 63.8413584,14.6936726 C62.3887366,10.8369573 58.6647304,8.08546982 54.3089933,8.08546982 C50.0385247,8.08546982 46.3759756,10.7308543 44.8653553,14.4690858 C44.5949176,14.0573212 44.2800498,13.6703184 43.92022,13.3160651 C42.5805355,11.9975663 40.8053305,11.2899915 38.926899,11.3203447 C35.1585958,11.3833142 32.0927923,14.5486963 32.0927923,18.3765228 L32.0927923,21.5667998 C32.0927923,22.0662957 31.6866701,22.4727352 31.1875641,22.4727352 L29.211626,22.4727352 C28.6944288,22.4727352 28.2750042,22.8923544 28.2750042,23.4099556 C28.2750042,23.9275569 28.6944288,24.3473092 29.211626,24.3473092 L31.1875641,24.3473092 C32.7196012,24.3473092 33.9659029,23.0999008 33.9659029,21.5667998 L33.9659029,18.3765228 C33.9659029,15.5652609 36.2053615,13.2407147 38.9581596,13.1946524 C40.336155,13.1697575 41.6282169,13.6894888 42.6067412,14.6526692 C43.5857977,15.6162489 44.1249439,16.9034626 44.1249439,18.2774757 C44.1249439,18.7950769 44.5443684,19.2146961 45.0615657,19.2146961 C45.5787629,19.2146961 45.9980544,18.7950769 45.9980544,18.2774757 C45.9980544,13.6912195 49.7263174,9.96004379 54.3089933,9.96004379 C58.8916693,9.96004379 62.6199323,13.6912195 62.6199323,18.2774757 C62.6199323,18.7950769 63.0393568,19.2146961 63.5565541,19.2146961 C64.0737513,19.2146961 64.4930428,18.7950769 64.4930428,18.2774757 C64.4930428,16.0864567 66.2730367,14.2697933 68.460882,14.227858 C69.5269361,14.2124152 70.5458998,14.6187216 71.3271496,15.3858045 C72.1279539,16.1720579 72.5872857,17.2618429 72.5872857,18.3759903 L72.5872857,20.5714025 C72.5872857,21.6197847 71.7350011,22.4727352 70.6874373,22.4727352 C70.1702401,22.4727352 69.7509485,22.8923544 69.7509485,23.4099556 C69.7509485,23.9275569 70.1702401,24.3473092 70.6874373,24.3473092 C72.7679323,24.3473092 74.4603963,22.6535229 74.4603963,20.5714025 L74.4603963,18.3759903 C74.4603963,16.7618145 73.7964736,15.1842489 72.638899,14.0476029 C71.4954249,12.9250684 69.9990382,12.320934 68.4249655,12.3536835 Z"/>
      <path fill="url(#page-1-e)" d="M23.9102614,22.4726686 C23.3930642,22.4726686 22.9737726,22.8922878 22.9737726,23.4100222 C22.9737726,23.9276235 23.3930642,24.3472426 23.9102614,24.3472426 L26.4985089,24.3472426 C27.0157061,24.3472426 27.4349977,23.9276235 27.4349977,23.4100222 C27.4349977,22.8922878 27.0157061,22.4726686 26.4985089,22.4726686 L23.9102614,22.4726686 Z"/>
      <path fill="url(#page-1-f)" d="M20.9220108,22.7464595 C20.7477494,22.9209902 20.6466512,23.1627504 20.6466512,23.4101021 C20.6466512,23.6575868 20.7477494,23.8976164 20.9220108,24.0737447 C21.0962722,24.2481422 21.3359814,24.3474556 21.583273,24.3474556 C21.8304316,24.3474556 22.0721361,24.2481422 22.2462645,24.0737447 C22.4205259,23.8976164 22.5197618,23.6557231 22.5197618,23.4101021 C22.5197618,23.1627504 22.4205259,22.9227208 22.2462645,22.7464595 C22.0721361,22.5721951 21.8304316,22.4728817 21.583273,22.4728817 C21.3359814,22.4728817 21.0962722,22.5721951 20.9220108,22.7464595 Z"/>
      <path fill="url(#page-1-g)" d="M126.664405,8.26347514 C126.147075,8.26347514 125.727916,8.68309428 125.727916,9.20069556 C125.727916,9.71842997 126.147075,10.1380491 126.664405,10.1380491 L127.048578,10.1380491 C127.565908,10.1380491 127.985067,9.71842997 127.985067,9.20069556 C127.985067,8.68309428 127.565908,8.26347514 127.048578,8.26347514 L126.664405,8.26347514 Z"/>
      <g transform="translate(106.02)">
        <mask id="page-1-j" fill="#fff">
          <use xlink:href="#page-1-h"/>
        </mask>
        <path fill="url(#page-1-i)" d="M25.9148529,3.59747533 C25.1876108,2.88337727 24.2303703,2.50143332 23.2314933,2.5199381 C22.2806379,2.53817662 21.41545,2.91958806 20.7603069,3.52545314 C19.7442698,1.49511952 17.6463486,0.0972765573 15.2271746,0.0972765573 C12.8755768,0.0972765573 10.8267415,1.41750595 9.78077401,3.35598132 C9.7268993,3.29713879 9.67169435,3.23909502 9.61436102,3.18264879 C8.77604393,2.35738893 7.67194493,1.91354051 6.48936179,1.93337657 C4.13097974,1.97291556 2.21224192,3.95132929 2.21224192,6.3437708 L2.21224192,8.15457651 C2.21224192,8.2146172 2.16342212,8.26347514 2.10342831,8.26347514 L0.981637123,8.26347514 C0.464439907,8.26347514 0.0451483372,8.68309428 0.0451483372,9.20069556 C0.0451483372,9.71842997 0.464439907,10.1380491 0.981637123,10.1380491 L2.10342831,10.1380491 C3.19622026,10.1380491 4.08535251,9.24822222 4.08535251,8.15457651 L4.08535251,6.3437708 C4.08535251,4.96776082 5.1777454,3.8301829 6.52062243,3.80781742 C6.53512204,3.80755116 6.54922258,3.80741803 6.56345615,3.80741803 C7.21820015,3.80741803 7.83370209,4.05929602 8.30101531,4.51911979 C8.77870441,4.98919441 9.04169281,5.61729185 9.04169281,6.2874577 C9.04169281,6.80519211 9.46098438,7.22481125 9.97818159,7.22481125 C10.4955118,7.22481125 10.9148034,6.80519211 10.9148034,6.2874577 C10.9148034,3.90779647 12.8493711,1.97185053 15.2271746,1.97185053 C17.6049782,1.97185053 19.5394128,3.90779647 19.5394128,6.2874577 C19.5394128,6.80519211 19.9587044,7.22481125 20.4760346,7.22481125 C20.9933649,7.22481125 21.4125234,6.80519211 21.4125234,6.2874577 C21.4125234,5.26317163 22.2447214,4.41381562 23.2674097,4.39411269 C23.7621259,4.38439435 24.2378196,4.5768973 24.6031035,4.93567699 C24.9804925,5.30617194 25.1969225,5.81924687 25.1969225,6.34350455 L25.1969225,7.5895817 C25.1969225,7.96114167 24.8949581,8.26347514 24.5235551,8.26347514 C24.0062249,8.26347514 23.5869333,8.68309428 23.5869333,9.20069556 C23.5869333,9.71842997 24.0062249,10.1380491 24.5235551,10.1380491 C25.9276232,10.1380491 27.0700331,8.9947467 27.0700331,7.5895817 L27.0700331,6.34350455 C27.0700331,5.31908535 26.6488792,4.31822979 25.9148529,3.59747533" mask="url(#page-1-j)"/>
      </g>
      <path fill="url(#page-1-k)" d="M102.307077,8.26347514 C101.789879,8.26347514 101.370455,8.68309428 101.370455,9.20069556 C101.370455,9.71842997 101.789879,10.1380491 102.307077,10.1380491 L103.776193,10.1380491 C104.293524,10.1380491 104.712682,9.71842997 104.712682,9.20069556 C104.712682,8.68309428 104.293524,8.26347514 103.776193,8.26347514 L102.307077,8.26347514 Z"/>
      <path fill="url(#page-1-l)" d="M97.888938,8.5371861 C97.7148096,8.71145052 97.6137114,8.95321079 97.6137114,9.20069556 C97.6137114,9.44818033 97.7148096,9.69007372 97.888938,9.86247435 C98.0630664,10.0386026 98.3047709,10.1380491 98.5520625,10.1380491 C98.7974917,10.1380491 99.0389302,10.0386026 99.2133247,9.86247435 C99.3874531,9.6880768 99.486822,9.44818033 99.486822,9.20069556 C99.486822,8.95321079 99.3874531,8.71331431 99.2133247,8.5371861 C99.0389302,8.36278855 98.7974917,8.26347514 98.5520625,8.26347514 C98.3047709,8.26347514 98.0630664,8.36278855 97.888938,8.5371861 Z"/>
      <path fill="url(#page-1-m)" d="M167.920913,28.681714 C166.876542,28.6510946 165.894426,29.0144006 165.119428,29.6960155 C163.815793,25.5988712 159.978317,22.6222645 155.458163,22.6222645 C151.278549,22.6222645 147.682246,25.1671374 146.133448,28.7896807 C144.750797,26.3804651 142.155366,24.7531097 139.185606,24.7531097 C135.950729,24.7531097 133.159753,26.6835973 131.897355,29.4530571 C130.928941,28.2201596 129.439471,27.4114076 127.770286,27.3794569 C127.735966,27.3787912 127.701912,27.3783919 127.667858,27.3783919 C126.273368,27.3783919 124.951908,27.9236837 123.936669,28.9202792 C122.884316,29.9534849 122.280786,31.3878049 122.280786,32.8554068 C122.280786,35.2064456 120.369631,37.1190941 118.02056,37.1190941 L116.775589,37.1190941 C116.258259,37.1190941 115.8391,37.5387133 115.8391,38.0563145 C115.8391,38.574049 116.258259,38.9936681 116.775589,38.9936681 L118.02056,38.9936681 C121.402429,38.9936681 124.153897,36.2400506 124.153897,32.8554068 C124.153897,31.8879664 124.552969,30.941427 125.248551,30.2584809 C125.926308,29.5928414 126.813445,29.2383218 127.734503,29.2536315 C129.632888,29.2901085 131.177563,30.8663429 131.177563,32.7675424 C131.177563,33.2851437 131.596721,33.7047628 132.114051,33.7047628 C132.631382,33.7047628 133.050673,33.2851437 133.050673,32.7675424 C133.050673,29.3819668 135.802939,26.6276836 139.185606,26.6276836 C142.568406,26.6276836 145.320805,29.3819668 145.320805,32.7675424 C145.320805,33.2851437 145.739963,33.7047628 146.257293,33.7047628 C146.774624,33.7047628 147.193915,33.2851437 147.193915,32.7675424 C147.193915,28.2069799 150.90116,24.4968384 155.458163,24.4968384 C160.015165,24.4968384 163.72241,28.2069799 163.72241,32.7675424 C163.72241,33.2851437 164.141702,33.7047628 164.659032,33.7047628 C165.176362,33.7047628 165.595521,33.2851437 165.595521,32.7675424 C165.595521,32.1648724 165.833368,31.6016083 166.264897,31.1813235 C166.696427,30.7611718 167.264041,30.5388482 167.869566,30.5556223 C169.054144,30.5881056 170.01777,31.6098622 170.01777,32.8330414 L170.01777,34.9062422 C170.01777,36.1263594 169.02581,37.1190941 167.806512,37.1190941 L167.237835,37.1190941 C166.720505,37.1190941 166.301213,37.5387133 166.301213,38.0563145 C166.301213,38.574049 166.720505,38.9936681 167.237835,38.9936681 L167.806512,38.9936681 C170.058741,38.9936681 171.89088,37.1600975 171.89088,34.9062422 L171.89088,32.8330414 C171.89088,30.6040809 170.109955,28.7417547 167.920913,28.681714"/>
      <path fill="url(#page-1-n)" d="M105.565898,37.1190808 L104.539352,37.1190808 C104.022022,37.1190808 103.60273,37.5387 103.60273,38.0563012 C103.60273,38.5740356 104.022022,38.9936548 104.539352,38.9936548 L105.565898,38.9936548 C106.083228,38.9936548 106.502387,38.5740356 106.502387,38.0563012 C106.502387,37.5387 106.083228,37.1190808 105.565898,37.1190808"/>
      <path fill="url(#page-1-o)" d="M113.036817,37.1190808 L109.272771,37.1190808 C108.755573,37.1190808 108.336282,37.5387 108.336282,38.0563012 C108.336282,38.5740356 108.755573,38.9936548 109.272771,38.9936548 L113.036817,38.9936548 C113.554147,38.9936548 113.973439,38.5740356 113.973439,38.0563012 C113.973439,37.5387 113.554147,37.1190808 113.036817,37.1190808"/>
      <path fill="url(#page-1-p)" d="M164.192198,37.1190808 L161.302651,37.1190808 C160.785454,37.1190808 160.366162,37.5387 160.366162,38.0563012 C160.366162,38.5740356 160.785454,38.9936548 161.302651,38.9936548 L164.192198,38.9936548 C164.709528,38.9936548 165.128686,38.5740356 165.128686,38.0563012 C165.128686,37.5387 164.709528,37.1190808 164.192198,37.1190808"/>
      <path fill="url(#page-1-q)" d="M15.2796792,92.2286402 C14.618417,92.2286402 14.0824634,91.6922679 14.0824634,91.0304891 C14.0824634,90.3687103 14.618417,89.8323379 15.2796792,89.8323379 L41.9460643,89.8323379 C42.6073265,89.8323379 43.1432801,90.3687103 43.1432801,91.0304891 C43.1432801,91.6922679 42.6073265,92.2286402 41.9460643,92.2286402 L15.2796792,92.2286402 Z"/>
      <g transform="translate(0 89.728)">
        <mask id="page-1-t" fill="#fff">
          <use xlink:href="#page-1-r"/>
        </mask>
        <path fill="url(#page-1-s)" d="M10.3724913,2.50043486 L1.19716257,2.50043486 C0.536033411,2.50043486 -5.32095903e-05,1.96406255 -5.32095903e-05,1.30228375 C-5.32095903e-05,0.640504957 0.536033411,0.104132644 1.19716257,0.104132644 L10.3724913,0.104132644 C11.0337534,0.104132644 11.569707,0.640504957 11.569707,1.30228375 C11.569707,1.96406255 11.0337534,2.50043486 10.3724913,2.50043486" mask="url(#page-1-t)"/>
      </g>
      <path fill="url(#page-1-u)" d="M41.8074667,111.193003 L27.727544,111.193003 C27.0662818,111.193003 26.5303282,110.65663 26.5303282,109.994851 C26.5303282,109.333073 27.0662818,108.7967 27.727544,108.7967 L41.8074667,108.7967 C42.4687288,108.7967 43.0046824,109.333073 43.0046824,109.994851 C43.0046824,110.65663 42.4687288,111.193003 41.8074667,111.193003"/>
      <path fill="url(#page-1-v)" d="M13.0058472,111.193003 C12.344585,111.193003 11.8086314,110.65663 11.8086314,109.994851 C11.8086314,109.333073 12.344585,108.7967 13.0058472,108.7967 L23.779725,108.7967 C24.4409872,108.7967 24.9769408,109.333073 24.9769408,109.994851 C24.9769408,110.65663 24.4409872,111.193003 23.779725,111.193003 L13.0058472,111.193003 Z"/>
    </g>
  </g>
</svg>
